<?xml version="1.0" encoding="UTF-8"?>
<svg version="1.1" xmlns="http://www.w3.org/2000/svg" width="383" height="258">
<path d="M0 0 C126.39 0 252.78 0 383 0 C383 85.14 383 170.28 383 258 C256.61 258 130.22 258 0 258 C0 172.86 0 87.72 0 0 Z " fill="#020101" transform="translate(0,0)"/>
<path d="M0 0 C13.53 0 27.06 0 41 0 C50.71205277 16.97497919 60.39242149 33.96568615 70 51 C78.28962871 65.6920864 86.6213 80.35843333 95 95 C100.28 104.24 105.56 113.48 111 123 C111.33 82.41 111.66 41.82 112 0 C125.86 0 139.72 0 154 0 C154 66.66 154 133.32 154 202 C140.14 202 126.28 202 112 202 C103.00936524 187.39021852 103.00936524 187.39021852 100.140625 182.125 C99.82952789 181.55694641 99.51843079 180.98889282 99.19790649 180.40362549 C98.54574485 179.21242129 97.89495268 178.02046629 97.24554443 176.82775879 C95.5127527 173.64645897 93.76802657 170.47171638 92.0234375 167.296875 C91.67745514 166.66690613 91.33147278 166.03693726 90.9750061 165.38787842 C87.53349834 159.13209801 83.99446859 152.93411187 80.43408203 146.74536133 C76.60930174 140.08967679 72.86123138 133.39322579 69.125 126.6875 C63.91161261 117.33873548 58.58775068 108.0616905 53.14501953 98.84448242 C47.92758899 89.97899512 43.00272075 81.00489734 38 72 C37.67 114.9 37.34 157.8 37 202 C24.79 202 12.58 202 0 202 C0 135.34 0 68.68 0 0 Z " fill="#CA8C24" transform="translate(196,28)"/>
<path d="M0 0 C13.86 0 27.72 0 42 0 C42.01458252 3.78847412 42.02916504 7.57694824 42.04418945 11.48022461 C42.09470573 24.04909077 42.16118376 36.61783101 42.23571491 49.18657589 C42.28048363 56.80104618 42.31994061 64.41547167 42.34643555 72.0300293 C42.3695703 78.67486487 42.40313722 85.31955638 42.44870156 91.96427733 C42.47242767 95.47537612 42.49129009 98.98633408 42.49761391 102.49751091 C41.65127961 135.018103 41.65127961 135.018103 56 163 C63.7750361 169.02599459 73.79237912 172.89669875 83.7421875 172.46875 C90.23100781 171.12159007 95.50295221 167.2237718 99.375 161.9375 C107.22629996 148.69674838 108.29129761 132.52511374 108.31884766 117.4987793 C108.32889328 116.21916321 108.3389389 114.93954712 108.34928894 113.62115479 C108.37627054 110.15717134 108.39164216 106.69322778 108.40471697 103.2291677 C108.42048911 99.59233325 108.44723331 95.95557868 108.4727478 92.31880188 C108.51928893 85.45210915 108.55615129 78.58540098 108.58942068 71.71863252 C108.62781784 63.89255354 108.67718107 56.06655529 108.72740483 48.24054468 C108.83035722 32.16041592 108.91828836 16.08025286 109 0 C122.86 0 136.72 0 151 0 C151.09084303 16.7961775 151.16429404 33.59214018 151.20724869 50.3884964 C151.22773725 58.19007765 151.25558983 65.99149368 151.30175781 73.79296875 C151.34205157 80.60515582 151.36753189 87.41722308 151.37635398 94.22952604 C151.38149813 97.82537424 151.39328853 101.42088014 151.42292023 105.01661682 C151.85820673 160.09977445 151.85820673 160.09977445 132.390625 179.8984375 C110.32007541 199.30032587 81.00785809 201.41127776 53 200 C47.38624546 199.37603552 42.28296099 198.02524608 37 196 C36.07058594 195.649375 35.14117187 195.29875 34.18359375 194.9375 C20.86848989 189.08291998 11.39063809 177.18701549 6 164 C1.31390537 149.79837673 -0.3160828 135.00102894 -0.22705078 120.10986328 C-0.22734283 118.80084045 -0.22763489 117.49181763 -0.22793579 116.14312744 C-0.22850241 112.60268995 -0.21686199 109.06239196 -0.20278788 105.52198648 C-0.19016346 101.80379883 -0.18910089 98.0856069 -0.18673706 94.36740112 C-0.18055632 87.34839228 -0.16419234 80.32944681 -0.14403808 73.31046569 C-0.12157213 65.3103022 -0.11065894 57.31013546 -0.10064721 49.30994821 C-0.0798225 32.87325601 -0.04318965 16.43665096 0 0 Z " fill="#E7B443" transform="translate(24,26)"/>
<path d="M0 0 C13.86 0 27.72 0 42 0 C42.01458252 3.78847412 42.02916504 7.57694824 42.04418945 11.48022461 C42.09470573 24.04909077 42.16118376 36.61783101 42.23571491 49.18657589 C42.28048363 56.80104618 42.31994061 64.41547167 42.34643555 72.0300293 C42.3695703 78.67486487 42.40313722 85.31955638 42.44870156 91.96427733 C42.47242767 95.47537612 42.49129009 98.98633408 42.49761391 102.49751091 C41.65127961 135.018103 41.65127961 135.018103 56 163 C63.7750361 169.02599459 73.79237912 172.89669875 83.7421875 172.46875 C90.23100781 171.12159007 95.50295221 167.2237718 99.375 161.9375 C107.5550244 148.14237411 108.24610195 131.29336358 108.625 115.6875 C108.66332349 114.349588 108.7023826 113.01169687 108.7421875 111.67382812 C108.8353133 108.44934726 108.92113386 105.2248557 109 102 C109.33 102 109.66 102 110 102 C110.33 103.65 110.66 105.3 111 107 C111.66 104.69 112.32 102.38 113 100 C113.33 100 113.66 100 114 100 C114.07553459 104.54911885 114.1292363 109.09785367 114.16479492 113.64746094 C114.1796558 115.18723934 114.19995039 116.72697723 114.22631836 118.26660156 C114.53134864 136.56841862 112.99142782 155.94244464 99.6640625 169.8046875 C94.97117505 173.67184695 89.68713406 175.95207825 84 178 C82.96488281 178.37511719 81.92976563 178.75023437 80.86328125 179.13671875 C75.49027932 180.33735922 70.30081062 180.32906099 64.8125 180.3125 C63.73291016 180.32861328 62.65332031 180.34472656 61.54101562 180.36132812 C59.98350586 180.36229492 59.98350586 180.36229492 58.39453125 180.36328125 C57.45456299 180.36626221 56.51459473 180.36924316 55.54614258 180.37231445 C52.58828984 179.93979691 51.20948665 178.96294284 49 177 C49.66 176.34 50.32 175.68 51 175 C50.43152344 174.76925781 49.86304688 174.53851563 49.27734375 174.30078125 C43.95412265 172.05240907 39.63686368 169.43127912 35 166 C34.01 165.67 33.02 165.34 32 165 C32 165.66 32 166.32 32 167 C28.67601378 166.05914288 27.27136457 165.40079422 25.3046875 162.49609375 C17.57728204 145.96451321 16.8452175 132.10285672 16.8671875 114.0859375 C16.86651127 112.11097197 16.86553861 110.13600651 16.86428833 108.16104126 C16.86281602 104.01034761 16.86494401 99.85967551 16.86962891 95.70898438 C16.87521508 90.51932868 16.87202762 85.32972557 16.86617661 80.14007187 C16.84115307 53.74426761 17.19772698 27.38363445 18 1 C12.06 1 6.12 1 0 1 C0 0.67 0 0.34 0 0 Z " fill="#975D0C" transform="translate(24,26)"/>
<path d="M0 0 C13.86 0 27.72 0 42 0 C42 66.66 42 133.32 42 202 C34.41 202 26.82 202 19 202 C18.98969254 200.27954468 18.97938507 198.55908936 18.96876526 196.78649902 C18.8702554 180.43208315 18.76750837 164.07769882 18.66066074 147.72333527 C18.60585715 139.31898663 18.55247471 130.91463387 18.50268555 122.51025391 C18.45918274 115.16766292 18.41276162 107.82509656 18.36312145 100.48254442 C18.33703841 96.61049799 18.31222166 92.73845475 18.29092598 88.86637878 C18.19630691 71.83838929 17.95486038 54.83077028 17.34507847 37.81259918 C16.9452705 26.53861188 16.89848406 15.27954892 17 4 C10.39231321 2.50329536 10.39231321 2.50329536 4 4 C3.51643351 6.88510446 3.51643351 6.88510446 3.375 10.5 C3.33632813 11.18690918 3.29765625 11.87381836 3.2578125 12.58154297 C2.8730141 20.51285642 2.9476568 28.45459081 3.03662109 36.39257812 C3.07805997 41.3808803 3.08531889 46.0991069 2 51 C3.32 51.33 4.64 51.66 6 52 C5.51917969 52.46921875 5.03835938 52.9384375 4.54296875 53.421875 C2.26086991 57.23500217 2.43198137 60.88039556 2.3125 65.25 C2.27833984 66.09046875 2.24417969 66.9309375 2.20898438 67.796875 C2.12676432 69.86412204 2.06169843 71.93203874 2 74 C1.67 74 1.34 74 1 74 C-0.43915589 49.35445533 -0.08816465 24.67630613 0 0 Z " fill="#A56810" transform="translate(308,28)"/>
<path d="M0 0 C1.49080078 0.02707031 1.49080078 0.02707031 3.01171875 0.0546875 C3.77097656 0.07789062 4.53023438 0.10109375 5.3125 0.125 C6.49572339 2.49144678 6.41334614 3.84390514 6.375 6.48046875 C6.24249026 17.78590146 6.37281412 29.04599963 6.80639648 40.34399414 C7.38831408 56.61259821 7.44514591 72.86680088 7.41389394 89.14407229 C7.40748636 93.06903309 7.40704327 96.99399535 7.40586853 100.91896057 C7.40280502 108.29508156 7.39466155 115.67118707 7.38451904 123.04730135 C7.37319968 131.46865592 7.3678083 139.89001136 7.36282361 148.31137168 C7.35247251 165.58258995 7.33497359 182.85379332 7.3125 200.125 C4.24194664 200.2771494 1.17894315 200.38845418 -1.89355469 200.4765625 C-2.76035858 200.52369385 -3.62716248 200.5708252 -4.52023315 200.61938477 C-10.99340789 200.75873434 -10.99340789 200.75873434 -14.54486084 197.51611328 C-16.2371059 194.75086141 -17.63445298 191.99200117 -18.87768555 188.99804688 C-20.19538807 185.95028872 -21.89381041 183.12603691 -23.546875 180.25 C-24.19100768 179.08159039 -24.83176539 177.91131423 -25.46923828 176.73925781 C-27.52579512 172.96217188 -29.59292172 169.19098234 -31.6640625 165.421875 C-32.01004486 164.79190613 -32.35602722 164.16193726 -32.7124939 163.51287842 C-35.68965255 158.10116586 -38.73346262 152.72941511 -41.8125 147.375 C-46.82394161 138.65866814 -51.75888216 129.90151015 -56.6550293 121.11987305 C-59.27892436 116.41502141 -61.91132926 111.71749269 -64.609375 107.0546875 C-65.03968018 106.30678955 -65.46998535 105.5588916 -65.91333008 104.78833008 C-66.69817847 103.42753612 -67.48930267 102.07033471 -68.2878418 100.7175293 C-69.14848369 99.22000005 -69.92799886 97.67627571 -70.6875 96.125 C-70.1925 95.135 -70.1925 95.135 -69.6875 94.125 C-69.0275 94.455 -68.3675 94.785 -67.6875 95.125 C-67.02083333 97.125 -66.35416667 99.125 -65.6875 101.125 C-65.0275 101.455 -64.3675 101.785 -63.6875 102.125 C-63.6875 103.445 -63.6875 104.765 -63.6875 106.125 C-62.90375 106.269375 -62.12 106.41375 -61.3125 106.5625 C-58.6875 107.125 -58.6875 107.125 -56.6875 108.125 C-56.935 109.135625 -57.1825 110.14625 -57.4375 111.1875 C-57.76212043 116.30027184 -56.41931797 117.9030995 -53.6875 122.125 C-53.6875 122.785 -53.6875 123.445 -53.6875 124.125 C-53.0275 124.125 -52.3675 124.125 -51.6875 124.125 C-51.0275 126.105 -50.3675 128.085 -49.6875 130.125 C-48.3675 129.795 -47.0475 129.465 -45.6875 129.125 C-45.935 129.8675 -46.1825 130.61 -46.4375 131.375 C-47.02399684 134.24214522 -47.02399684 134.24214522 -44.875 136.3125 C-44.153125 136.910625 -43.43125 137.50875 -42.6875 138.125 C-42.0275 138.785 -41.3675 139.445 -40.6875 140.125 C-39.6975 139.135 -39.6975 139.135 -38.6875 138.125 C-37.6975 139.115 -37.6975 139.115 -36.6875 140.125 C-36.98777117 141.79793936 -37.32307767 143.46485384 -37.6875 145.125 C-37.3575 146.115 -37.0275 147.105 -36.6875 148.125 C-36.0275 148.455 -35.3675 148.785 -34.6875 149.125 C-35.0175 150.115 -35.3475 151.105 -35.6875 152.125 C-35.3575 152.785 -35.0275 153.445 -34.6875 154.125 C-32.16016765 154.78055119 -32.16016765 154.78055119 -29.6875 155.125 C-29.935 156.135625 -30.1825 157.14625 -30.4375 158.1875 C-30.76555096 163.35430258 -29.63539305 164.94881819 -26.6875 169.125 C-24.01107511 171.30990007 -24.01107511 171.30990007 -21.6875 171.125 C-21.0275 170.774375 -20.3675 170.42375 -19.6875 170.0625 C-19.0275 169.753125 -18.3675 169.44375 -17.6875 169.125 C-17.0275 169.455 -16.3675 169.785 -15.6875 170.125 C-15.3575 167.815 -15.0275 165.505 -14.6875 163.125 C-14.0275 163.125 -13.3675 163.125 -12.6875 163.125 C-12.3575 124.845 -12.0275 86.565 -11.6875 47.125 C-11.3575 47.125 -11.0275 47.125 -10.6875 47.125 C-10.1925 53.065 -10.1925 53.065 -9.6875 59.125 C-9.6875 57.475 -9.6875 55.825 -9.6875 54.125 C-8.1875 51.8125 -8.1875 51.8125 -6.6875 50.125 C-7.6775 49.795 -8.6675 49.465 -9.6875 49.125 C-9.71235162 43.7172885 -9.73043147 38.30961079 -9.74243164 32.90185547 C-9.74743819 31.06493551 -9.7542454 29.22801949 -9.76293945 27.39111328 C-9.77516697 24.73989892 -9.78076523 22.08873757 -9.78515625 19.4375 C-9.79031754 18.62571289 -9.79547882 17.81392578 -9.80079651 16.97753906 C-9.80128423 11.93962352 -9.6407825 7.08165914 -8.6875 2.125 C-5.26655758 -0.15562828 -4.00562778 -0.09425007 0 0 Z " fill="#ECBE57" transform="translate(319.6875,29.875)"/>
<path d="M0 0 C0.33 0 0.66 0 1 0 C1.33 3.63 1.66 7.26 2 11 C2.103125 9.906875 2.20625 8.81375 2.3125 7.6875 C3 4 3 4 4.1875 2.125 C6.74066551 0.54027658 9.03053983 0.25272001 12 0 C12.66 0.33 13.32 0.66 14 1 C13.98839844 1.99257813 13.97679687 2.98515625 13.96484375 4.0078125 C13.90205036 11.79612534 14.08151131 19.48108243 14.7109375 27.25 C15.06080083 31.78876756 15.3167179 36.32959234 15.5625 40.875 C15.60624756 41.67921387 15.64999512 42.48342773 15.69506836 43.31201172 C15.79764674 45.20795748 15.89896446 47.10397139 16 49 C16.66 49 17.32 49 18 49 C18 52.3 18 55.6 18 59 C17.01 59.495 17.01 59.495 16 60 C15.67 106.53 15.34 153.06 15 201 C10.05 201 5.1 201 0 201 C0 134.67 0 68.34 0 0 Z " fill="#E7B544" transform="translate(196,29)"/>
<path d="M0 0 C13.86 0 27.72 0 42 0 C42.04528409 15.16076349 42.08206868 30.32149612 42.10362434 45.4823103 C42.11390253 52.52298098 42.12789607 59.56360642 42.15087891 66.60424805 C42.1730708 73.40587603 42.18458767 80.2074571 42.18975449 87.00911903 C42.19343404 89.59688364 42.20061908 92.18464585 42.21146011 94.77239037 C42.22609519 98.41236175 42.22797293 102.05214235 42.22705078 105.69213867 C42.23424133 106.74878723 42.24143188 107.80543579 42.24884033 108.894104 C42.22840979 116.40502287 41.38880415 123.61917257 40 131 C39.87525362 131.76272815 39.75050724 132.5254563 39.62198067 133.31129742 C39.41672705 133.86856927 39.21147343 134.42584112 39 135 C38.01 135.33 37.02 135.66 36 136 C36 135.34 36 134.68 36 134 C35.505 134.33 35.01 134.66 34.5 135 C30.8644803 136.45420788 27.91137561 136.18926011 24 136 C23.34 135.67 22.68 135.34 22 135 C22 90.33333333 22 45.66666667 22 1 C16.39 1 10.78 1 5 1 C5 16.84 5 32.68 5 49 C4.34 49 3.68 49 3 49 C2.01 51.475 2.01 51.475 1 54 C0.67 54 0.34 54 0 54 C0 36.18 0 18.36 0 0 Z " fill="#9B600E" transform="translate(133,26)"/>
<path d="M0 0 C0.33 0 0.66 0 1 0 C1.07553459 4.54911885 1.1292363 9.09785367 1.16479492 13.64746094 C1.1796558 15.18723934 1.19995039 16.72697723 1.22631836 18.26660156 C1.53134864 36.56841862 -0.00857218 55.94244464 -13.3359375 69.8046875 C-18.02882495 73.67184695 -23.31286594 75.95207825 -29 78 C-30.03511719 78.37511719 -31.07023437 78.75023437 -32.13671875 79.13671875 C-37.50972068 80.33735922 -42.69918938 80.32906099 -48.1875 80.3125 C-49.26708984 80.32861328 -50.34667969 80.34472656 -51.45898438 80.36132812 C-53.01649414 80.36229492 -53.01649414 80.36229492 -54.60546875 80.36328125 C-56.01542114 80.36775269 -56.01542114 80.36775269 -57.45385742 80.37231445 C-60.41171016 79.93979691 -61.79051335 78.96294284 -64 77 C-63.01 76.01 -63.01 76.01 -62 75 C-62.85271484 74.65388672 -62.85271484 74.65388672 -63.72265625 74.30078125 C-69.04587735 72.05240907 -73.36313632 69.43127912 -78 66 C-78.99 65.67 -79.98 65.34 -81 65 C-81 65.66 -81 66.32 -81 67 C-84.42925775 66.0509864 -85.75007478 65.3819399 -87.73046875 62.35546875 C-88.21128906 61.31003906 -88.69210938 60.26460937 -89.1875 59.1875 C-89.67605469 58.14980469 -90.16460937 57.11210937 -90.66796875 56.04296875 C-94 48.43108504 -94 48.43108504 -94 45 C-93.34 45 -92.68 45 -92 45 C-91.67 44.34 -91.34 43.68 -91 43 C-90.67 43.33 -90.34 43.66 -90 44 C-90 38.06 -90 32.12 -90 26 C-89.01 26.66 -88.02 27.32 -87 28 C-87.66 29.32 -88.32 30.64 -89 32 C-88.34 32.33 -87.68 32.66 -87 33 C-87 35.64 -87 38.28 -87 41 C-82.545 40.505 -82.545 40.505 -78 40 C-78 40.66 -78 41.32 -78 42 C-74.54937143 38.71368707 -71.857033 35.7993848 -71 31 C-71.99 31.66 -72.98 32.32 -74 33 C-74 33.99 -74 34.98 -74 36 C-75.485 36.495 -75.485 36.495 -77 37 C-77.33 34.36 -77.66 31.72 -78 29 C-76.68 28.67 -75.36 28.34 -74 28 C-73.67 25.36 -73.34 22.72 -73 20 C-72.34 20 -71.68 20 -71 20 C-70.93006836 20.60360352 -70.86013672 21.20720703 -70.78808594 21.82910156 C-68.67471195 44.33629629 -68.67471195 44.33629629 -57 63 C-49.23980808 69.03864764 -39.20247609 72.89647747 -29.2578125 72.46875 C-22.76899219 71.12159007 -17.49704779 67.2237718 -13.625 61.9375 C-5.4449756 48.14237411 -4.75389805 31.29336358 -4.375 15.6875 C-4.33667651 14.349588 -4.2976174 13.01169687 -4.2578125 11.67382812 C-4.1646867 8.44934726 -4.07886614 5.2248557 -4 2 C-3.67 2 -3.34 2 -3 2 C-2.505 4.475 -2.505 4.475 -2 7 C-1.34 4.69 -0.68 2.38 0 0 Z " fill="#935A09" transform="translate(137,126)"/>
<path d="M0 0 C0.74958984 0.00451172 1.49917969 0.00902344 2.27148438 0.01367188 C4.11852383 0.02543646 5.96552213 0.04337135 7.8125 0.0625 C10.19221644 7.20164933 5.72267928 15.72892083 2.6875 22.1875 C-5.75230324 38.70153212 -20.37644224 46.86358189 -37.1875 53.0625 C-46.47583211 55.94799093 -55.4811108 57.26058958 -65.1875 57.0625 C-65.1875 56.7325 -65.1875 56.4025 -65.1875 56.0625 C-64.3625 56.0109375 -63.5375 55.959375 -62.6875 55.90625 C-48.15684523 54.47913212 -34.83396412 48.18892492 -25.37109375 36.89453125 C-17.87677941 26.9722533 -13.90904142 15.88636949 -11.92578125 3.73046875 C-11.68214844 2.85003906 -11.43851563 1.96960938 -11.1875 1.0625 C-7.42449626 -0.19183458 -3.91539091 -0.04445422 0 0 Z " fill="#91590A" transform="translate(164.1875,168.9375)"/>
<path d="M0 0 C2.41531807 3.06215668 4.33150394 6.23566662 6.21484375 9.6484375 C6.81876953 10.73640625 7.42269531 11.824375 8.04492188 12.9453125 C8.66947266 14.07710937 9.29402344 15.20890625 9.9375 16.375 C11.17343037 18.61327888 12.41164366 20.85029899 13.65234375 23.0859375 C14.19882568 24.0764209 14.74530762 25.0669043 15.30834961 26.08740234 C16.94605471 29.06710366 16.94605471 29.06710366 19.18481445 31.75878906 C21.6701619 36.19664685 21.50684972 39.77583125 21.390625 44.7734375 C21.38496521 45.6971817 21.37930542 46.6209259 21.37347412 47.57266235 C21.35118052 50.50731418 21.30099748 53.44072061 21.25 56.375 C21.22992592 58.37107605 21.21167674 60.36717134 21.1953125 62.36328125 C21.15133872 67.24266338 21.08235999 72.12112093 21 77 C18.29540552 73.76203365 16.08620164 70.58774294 14.1171875 66.859375 C13.33371948 65.39008545 13.33371948 65.39008545 12.53442383 63.89111328 C11.98681396 62.8545459 11.4392041 61.81797852 10.875 60.75 C6.97982367 53.46260344 3.04817726 46.22061337 -1.1875 39.125 C-4.74881194 33.14885585 -8.227257 27.13339178 -11.625 21.0625 C-12.06352295 20.28600098 -12.5020459 19.50950195 -12.95385742 18.70947266 C-16 13.23661694 -16 13.23661694 -16 11 C-14.17480469 11.22045898 -14.17480469 11.22045898 -12 12 C-10.53613281 13.94946289 -10.53613281 13.94946289 -9.203125 16.47265625 C-8.47802734 17.82133789 -8.47802734 17.82133789 -7.73828125 19.19726562 C-7.24714844 20.14279297 -6.75601562 21.08832031 -6.25 22.0625 C-5.74339844 23.01189453 -5.23679687 23.96128906 -4.71484375 24.93945312 C-3.46445123 27.28688815 -2.22689431 29.64022263 -1 32 C3.21452836 30.1789075 4.15126888 28.20166163 6 24 C6.4125 23.34 6.825 22.68 7.25 22 C8.32559637 19.13174302 7.66585022 16.92974097 7 14 C6.34 14 5.68 14 5 14 C4.34 11.69 3.68 9.38 3 7 C2.01 7 1.02 7 0 7 C-0.93423645 3.98968256 -1.04449911 3.13349732 0 0 Z " fill="#B87718" transform="translate(287,117)"/>
<path d="M0 0 C6.6 0 13.2 0 20 0 C20.33 17.16 20.66 34.32 21 52 C21.66 46.72 22.32 41.44 23 36 C23.99 36 24.98 36 26 36 C27.1875 38.5625 27.1875 38.5625 28 42 C27.33852339 43.62061768 26.66010005 45.23833954 25.86328125 46.796875 C24.30961378 50.76189063 24.03552562 55.00122128 23.52734375 59.20703125 C23 62 23 62 21 64 C20.83318891 67.08347826 20.83318891 67.08347826 21 70 C21.66 70 22.32 70 23 70 C23.02555006 76.34968192 23.04295013 82.69935037 23.05493164 89.04907227 C23.05993155 91.20500178 23.06673365 93.36092796 23.07543945 95.5168457 C23.08769663 98.63233265 23.09327188 101.74777441 23.09765625 104.86328125 C23.10281754 105.81270096 23.10797882 106.76212067 23.11329651 107.74031067 C23.11382761 114.21020446 22.68745634 120.56745286 22 127 C21.67 127 21.34 127 21 127 C20.67 151.75 20.34 176.5 20 202 C19.67 202 19.34 202 19 202 C18.99576806 201.29251366 18.99153612 200.58502731 18.98717594 199.85610199 C18.88294948 182.47848234 18.77419321 165.10089661 18.66066074 147.72333527 C18.60585715 139.31898663 18.55247471 130.91463387 18.50268555 122.51025391 C18.45918274 115.16766292 18.41276162 107.82509656 18.36312145 100.48254442 C18.33703841 96.61049799 18.31222166 92.73845475 18.29092598 88.86637878 C18.19630691 71.83838929 17.95486038 54.83077028 17.34507847 37.81259918 C16.9452705 26.53861188 16.89848406 15.27954892 17 4 C10.39231321 2.50329536 10.39231321 2.50329536 4 4 C3.51643351 6.88510446 3.51643351 6.88510446 3.375 10.5 C3.33632813 11.18690918 3.29765625 11.87381836 3.2578125 12.58154297 C2.8730141 20.51285642 2.9476568 28.45459081 3.03662109 36.39257812 C3.07805997 41.3808803 3.08531889 46.0991069 2 51 C3.32 51.33 4.64 51.66 6 52 C5.51917969 52.46921875 5.03835938 52.9384375 4.54296875 53.421875 C2.26086991 57.23500217 2.43198137 60.88039556 2.3125 65.25 C2.27833984 66.09046875 2.24417969 66.9309375 2.20898438 67.796875 C2.12676432 69.86412204 2.06169843 71.93203874 2 74 C1.67 74 1.34 74 1 74 C-0.43915589 49.35445533 -0.08816465 24.67630613 0 0 Z " fill="#D2932F" transform="translate(308,28)"/>
<path d="M0 0 C7.26 0 14.52 0 22 0 C22 66.66 22 133.32 22 202 C21.67 202 21.34 202 21 202 C20.67 140.29 20.34 78.58 20 15 C17.03 15.99 14.06 16.98 11 18 C9.31963489 21.02884844 9.31963489 21.02884844 9 24 C7.02 24 5.04 24 3 24 C1.79727181 26.40545638 1.89928528 27.94996953 1.9375 30.625 C1.94652344 31.44226563 1.95554687 32.25953125 1.96484375 33.1015625 C1.97644531 33.72804687 1.98804688 34.35453125 2 35 C1.34 35 0.68 35 0 35 C0 23.45 0 11.9 0 0 Z " fill="#81510E" transform="translate(328,28)"/>
<path d="M0 0 C13.53 0 27.06 0 41 0 C49 14 57 28 65 42 C61.25 44 61.25 44 59 44 C59 43.34 59 42.68 59 42 C58.34 42 57.68 42 57 42 C56.505 42.99 56.505 42.99 56 44 C55.67 43.34 55.34 42.68 55 42 C55.99 40.68 56.98 39.36 58 38 C57.01 38 56.02 38 55 38 C54.01 37.34 53.02 36.68 52 36 C51.01 36 50.02 36 49 36 C49 33.36 49 30.72 49 28 C48.34 27.67 47.68 27.34 47 27 C47.66666667 24.33333333 48.33333333 21.66666667 49 19 C48.34 19 47.68 19 47 19 C46.505 15.535 46.505 15.535 46 12 C45.21625 11.7525 44.4325 11.505 43.625 11.25 C41 10 41 10 39.75 8.125 C39.03392782 6.09612882 38.45072134 4.10336625 38 2 C36.35 2.66 34.7 3.32 33 4 C32.505 3.01 32.505 3.01 32 2 C27.05 2 22.1 2 17 2 C15.74751498 4.50497004 15.88625594 6.20853274 15.90234375 9.0078125 C15.90556641 9.99394531 15.90878906 10.98007812 15.91210938 11.99609375 C15.92048828 13.02863281 15.92886719 14.06117187 15.9375 15.125 C15.94201172 16.16527344 15.94652344 17.20554687 15.95117188 18.27734375 C15.96298048 20.85161962 15.97944925 23.42578146 16 26 C16.66 26 17.32 26 18 26 C18.90286751 29.08601081 19.1216323 31.83361006 19.11352539 35.04394531 C19.11344986 36.04468079 19.11337433 37.04541626 19.11329651 38.07647705 C19.10813522 39.14952087 19.10297394 40.2225647 19.09765625 41.328125 C19.0962413 42.43226746 19.09482635 43.53640991 19.09336853 44.67401123 C19.08777258 48.19936842 19.07522079 51.72466202 19.0625 55.25 C19.05748448 57.64062408 19.05292166 60.03124916 19.04882812 62.421875 C19.03780447 68.28127168 19.02107033 74.1406313 19 80 C18.67 80 18.34 80 18 80 C18 70.1 18 60.2 18 50 C16.515 50.495 16.515 50.495 15 51 C14.97494385 50.27522461 14.9498877 49.55044922 14.92407227 48.80371094 C14.80651383 45.45236255 14.68452697 42.10118854 14.5625 38.75 C14.52318359 37.61046875 14.48386719 36.4709375 14.44335938 35.296875 C14.23629617 29.69024064 13.94960202 24.1189194 13.4375 18.53125 C13.08168042 14.52188429 12.96231439 10.76267848 13.4375 6.75 C13.53933594 5.83734375 13.64117187 4.9246875 13.74609375 3.984375 C13.82988281 3.32953125 13.91367188 2.6746875 14 2 C8.41499433 2.19898708 8.41499433 2.19898708 4 5 C2.81399669 10.91430788 2.68827654 16.92297424 2.4375 22.9375 C2.39431641 23.90751953 2.35113281 24.87753906 2.30664062 25.87695312 C2.20137907 28.25118601 2.09924293 30.62550921 2 33 C1.67 33 1.34 33 1 33 C0.67 22.11 0.34 11.22 0 0 Z " fill="#C7801F" transform="translate(196,28)"/>
<path d="M0 0 C4.45739663 4.8887576 5 8.51613099 5 15 C5.99 15 6.98 15 8 15 C10 18 10 18 10 22 C10.66 22 11.32 22 12 22 C13.80619523 26.46236469 14.11658501 29.31034294 13 34 C12.34 34 11.68 34 11 34 C10.38125 34.99 9.7625 35.98 9.125 37 C8.073125 38.485 8.073125 38.485 7 40 C5.68 40 4.36 40 3 40 C-0.3 34.06 -3.6 28.12 -7 22 C-6.01 20.68 -5.02 19.36 -4 18 C-5.32 16.68 -6.64 15.36 -8 14 C-7.34 13.67 -6.68 13.34 -6 13 C-4.86382617 10.00463263 -5.02889514 8.02121511 -6 5 C-4.68 4.01 -3.36 3.02 -2 2 C-1.67 2.33 -1.34 2.66 -1 3 C-0.67 2.01 -0.34 1.02 0 0 Z " fill="#D0881E" transform="translate(282,109)"/>
<path d="M0 0 C0.66 0 1.32 0 2 0 C3.32 10.23 4.64 20.46 6 31 C2.37 31 -1.26 31 -5 31 C-10.05276848 32.37888902 -10.05276848 32.37888902 -11.3125 35.625 C-11.539375 36.40875 -11.76625 37.1925 -12 38 C-11.34 38 -10.68 38 -10 38 C-9.67 39.32 -9.34 40.64 -9 42 C-8.34 42 -7.68 42 -7 42 C-6.67 42.99 -6.34 43.98 -6 45 C-6.66 45 -7.32 45 -8 45 C-8 45.66 -8 46.32 -8 47 C-11.42925775 46.0509864 -12.75007478 45.3819399 -14.73046875 42.35546875 C-15.21128906 41.31003906 -15.69210938 40.26460937 -16.1875 39.1875 C-16.67605469 38.14980469 -17.16460937 37.11210937 -17.66796875 36.04296875 C-21 28.43108504 -21 28.43108504 -21 25 C-20.34 25 -19.68 25 -19 25 C-18.67 24.34 -18.34 23.68 -18 23 C-17.67 23.33 -17.34 23.66 -17 24 C-17 18.06 -17 12.12 -17 6 C-16.01 6.66 -15.02 7.32 -14 8 C-14.66 9.32 -15.32 10.64 -16 12 C-15.34 12.33 -14.68 12.66 -14 13 C-14 15.64 -14 18.28 -14 21 C-11.03 20.67 -8.06 20.34 -5 20 C-5 20.66 -5 21.32 -5 22 C-1.54937143 18.71368707 1.142967 15.7993848 2 11 C1.01 11.66 0.02 12.32 -1 13 C-1 13.99 -1 14.98 -1 16 C-1.99 16.33 -2.98 16.66 -4 17 C-4.33 14.36 -4.66 11.72 -5 9 C-3.68 8.67 -2.36 8.34 -1 8 C-0.67 5.36 -0.34 2.72 0 0 Z " fill="#975E09" transform="translate(64,146)"/>
<path d="M0 0 C0.33 0 0.66 0 1 0 C1 37.95 1 75.9 1 115 C1.66 115 2.32 115 3 115 C3.2361959 121.40353322 2.823321 126.84629161 1 133 C0.67 133 0.34 133 0 133 C-0.33 123.76 -0.66 114.52 -1 105 C-2.485 105.99 -2.485 105.99 -4 107 C-5.19454756 101.34838997 -5.16161349 95.80231304 -5.16796875 90.0546875 C-5.17129715 89.00725372 -5.17462555 87.95981995 -5.17805481 86.88064575 C-5.18310366 84.6735274 -5.18546377 82.46640146 -5.18530273 80.25927734 C-5.18749691 76.87975617 -5.20569538 73.50055757 -5.22460938 70.12109375 C-5.22754215 67.97395945 -5.22952772 65.8268236 -5.23046875 63.6796875 C-5.23765427 62.66921356 -5.24483978 61.65873962 -5.25224304 60.61764526 C-5.24916641 59.67631744 -5.24608978 58.73498962 -5.24291992 57.76513672 C-5.24434494 56.93940155 -5.24576996 56.11366638 -5.24723816 55.26290894 C-4.96899161 52.716188 -4.41651809 51.1322719 -3 49 C-1.515 48.505 -1.515 48.505 0 48 C0 32.16 0 16.32 0 0 Z " fill="#D2912A" transform="translate(138,27)"/>
<path d="M0 0 C0.33 0 0.66 0 1 0 C1 40.59 1 81.18 1 123 C0.01 122.01 -0.98 121.02 -2 120 C-1.01 119.505 -1.01 119.505 0 119 C-0.33 103.49 -0.66 87.98 -1 72 C-1.99 72.99 -1.99 72.99 -3 74 C-3.99 74 -4.98 74 -6 74 C-7.24801242 72.55493299 -8.48963178 71.10226786 -9.66015625 69.59375 C-11.1153115 67.75728974 -11.1153115 67.75728974 -13.8125 65.75 C-14.8953125 64.88375 -14.8953125 64.88375 -16 64 C-16 63.34 -16 62.68 -16 62 C-16.99 61.67 -17.98 61.34 -19 61 C-18.34 59.68 -17.68 58.36 -17 57 C-16.34 57 -15.68 57 -15 57 C-15 57.66 -15 58.32 -15 59 C-11.70924004 58.62095792 -11.70924004 58.62095792 -9 57 C-6.36 57 -3.72 57 -1 57 C-0.67 38.19 -0.34 19.38 0 0 Z " fill="#160E06" transform="translate(307,29)"/>
<path d="M0 0 C5.94 0 11.88 0 18 0 C18.02298224 5.60511337 18.04288797 11.21006256 18.05493164 16.81518555 C18.05995364 18.72111567 18.06677248 20.62704195 18.07543945 22.53295898 C18.08759846 25.27588856 18.09324971 28.0187671 18.09765625 30.76171875 C18.10281754 31.61086349 18.10797882 32.46000824 18.11329651 33.33488464 C18.11367627 37.35943048 18.0089224 41.07253392 17 45 C16.67 45 16.34 45 16 45 C15.07150932 34.90087832 15.01170707 25.12828355 15.68139648 15.0090332 C15.73497314 14.155271 15.7885498 13.30150879 15.84375 12.421875 C15.89724609 11.66487305 15.95074219 10.90787109 16.00585938 10.12792969 C15.99867542 7.51895808 15.91685318 4.91685318 14 3 C12.30858344 3.08963062 10.62040398 3.24577676 8.9375 3.4375 C8.01839844 3.53933594 7.09929688 3.64117188 6.15234375 3.74609375 C5.08693359 3.87177734 5.08693359 3.87177734 4 4 C1.82789985 14.08159474 1.86589663 24.34984299 1.9375 34.6171875 C1.94385494 36.57815597 1.95019994 38.5391245 1.95609283 40.50009441 C1.96296152 42.55613417 1.97204597 44.61215388 1.98168945 46.66818237 C2.01389051 53.735788 2.02609918 60.80342107 2.03125 67.87109375 C2.03179886 68.56855524 2.03234772 69.26601673 2.03291321 69.98461342 C2.04035081 87.33330937 1.63949396 104.66393096 1 122 C0.67 122 0.34 122 0 122 C0 81.74 0 41.48 0 0 Z " fill="#F0D28E" transform="translate(24,27)"/>
<path d="M0 0 C13.86 0 27.72 0 42 0 C42 0.33 42 0.66 42 1 C29.79 1 17.58 1 5 1 C5 16.84 5 32.68 5 49 C4.34 49 3.68 49 3 49 C2.01 51.475 2.01 51.475 1 54 C0.67 54 0.34 54 0 54 C0 36.18 0 18.36 0 0 Z " fill="#81510C" transform="translate(133,26)"/>
<path d="M0 0 C0.66 1.32 1.32 2.64 2 4 C2.99 4 3.98 4 5 4 C5.33 2.68 5.66 1.36 6 0 C7.32 0.33 8.64 0.66 10 1 C10.33 2.65 10.66 4.3 11 6 C10.01 6 9.02 6 8 6 C7.82470665 10.47980454 7.69890665 14.95770555 7.61547852 19.43994141 C7.5806441 20.95885045 7.53315513 22.47753141 7.47192383 23.99560547 C7.08654792 33.80811806 7.6099731 40.3083044 13.58178711 48.59082031 C15 51 15 51 14.71313477 53.32324219 C14.47780029 53.87657227 14.24246582 54.42990234 14 55 C13.01 55 12.02 55 11 55 C10.49166409 53.75336669 9.99368855 52.50250613 9.5 51.25 C9.08234375 50.20585938 9.08234375 50.20585938 8.65625 49.140625 C8 47 8 47 8 43 C7.34 43 6.68 43 6 43 C5.67 50.59 5.34 58.18 5 66 C4.67 66 4.34 66 4 66 C3.67 51.15 3.34 36.3 3 21 C2.34 21 1.68 21 1 21 C0.21311555 18.22276075 -0.11949924 15.77389923 -0.09765625 12.890625 C-0.09443359 12.13652344 -0.09121094 11.38242187 -0.08789062 10.60546875 C-0.07951172 9.82816406 -0.07113281 9.05085938 -0.0625 8.25 C-0.05798828 7.45722656 -0.05347656 6.66445313 -0.04882812 5.84765625 C-0.03708565 3.89840492 -0.01915146 1.94919262 0 0 Z " fill="#955804" transform="translate(211,33)"/>
<path d="M0 0 C0.66 0 1.32 0 2 0 C3.02880324 3.40638766 3.14475095 6.54822791 3.17700195 10.09790039 C3.19625481 11.94485252 3.19625481 11.94485252 3.21589661 13.82911682 C3.22406123 15.16862586 3.23150549 16.50813946 3.23828125 17.84765625 C3.24235678 18.52426237 3.2464323 19.20086849 3.25063133 19.89797783 C3.27143992 23.47405563 3.28576835 27.05009557 3.29516602 30.6262207 C3.30626606 34.32090515 3.34072077 38.01499321 3.38033772 41.70946598 C3.40644406 44.55160155 3.41485206 47.393593 3.41844749 50.23583794 C3.42332303 51.59824118 3.43496468 52.96063758 3.45348549 54.32292366 C3.47776182 56.22563356 3.47450349 58.12863478 3.4699707 60.03149414 C3.47583694 61.11419083 3.48170319 62.19688751 3.48774719 63.31239319 C3 66 3 66 0.97062683 67.87303162 C0.32031998 68.24493118 -0.32998688 68.61683075 -1 69 C-1.02312589 60.1511761 -1.04091634 51.30236253 -1.05181217 42.45351505 C-1.05704046 38.34505715 -1.06413713 34.23661986 -1.07543945 30.12817383 C-1.08627025 26.16653172 -1.09227724 22.20490948 -1.09487724 18.24325371 C-1.09673114 16.72851689 -1.1003511 15.21378121 -1.10573006 13.69905281 C-1.11294307 11.58458187 -1.11399083 9.47019406 -1.11352539 7.35571289 C-1.115746 6.14992081 -1.11796661 4.94412872 -1.12025452 3.70179749 C-1 1 -1 1 0 0 Z " fill="#945C0A" transform="translate(212,124)"/>
<path d="M0 0 C0.33 0 0.66 0 1 0 C1.31177281 5.01660389 1.61463682 10.0336388 1.90942383 15.05126953 C2.01084437 16.75649335 2.11465546 18.4615768 2.22094727 20.16650391 C2.37371446 22.62368892 2.5177463 25.08125808 2.66015625 27.5390625 C2.70906509 28.29555084 2.75797394 29.05203918 2.80836487 29.83145142 C3.04330091 34.0496843 2.87237104 37.86410318 2 42 C2.66 42.33 3.32 42.66 4 43 C3.85866501 44.77119803 3.71176792 46.54195287 3.5625 48.3125 C3.48128906 49.29863281 3.40007812 50.28476563 3.31640625 51.30078125 C3 54 3 54 2 57 C2.66 57 3.32 57 4 57 C3.649375 58.11375 3.29875 59.2275 2.9375 60.375 C1.62760669 63.80264476 1.62760669 63.80264476 3 66 C2.7834375 66.99 2.7834375 66.99 2.5625 68 C1.75071853 72.32950117 1.92324236 76.60775747 2 81 C3.98 80.505 3.98 80.505 6 80 C6 80.99 6 81.98 6 83 C8.64 83.33 11.28 83.66 14 84 C13.9278125 83.07960938 13.855625 82.15921875 13.78125 81.2109375 C13.21013162 73.42151733 12.91822583 65.74363777 13.0625 57.92578125 C13.11072387 55.09115644 13.11072387 55.09115644 12.44140625 52.77734375 C11.78097145 50.1180709 12.86404909 48.40554311 14 46 C14.33 46 14.66 46 15 46 C15 59.2 15 72.4 15 86 C10.05 86 5.1 86 0 86 C0 57.62 0 29.24 0 0 Z " fill="#EDD18D" transform="translate(196,144)"/>
<path d="M0 0 C6.27 0 12.54 0 19 0 C19 19.14 19 38.28 19 58 C18.67 58 18.34 58 18 58 C17.34556621 39.66018932 16.83480778 21.35469091 17 3 C10.39231321 1.50329536 10.39231321 1.50329536 4 3 C3.51643351 5.88510446 3.51643351 5.88510446 3.375 9.5 C3.33632813 10.18690918 3.29765625 10.87381836 3.2578125 11.58154297 C2.8730141 19.51285642 2.9476568 27.45459081 3.03662109 35.39257812 C3.07805997 40.3808803 3.08531889 45.0991069 2 50 C3.32 50.33 4.64 50.66 6 51 C5.51917969 51.46921875 5.03835938 51.9384375 4.54296875 52.421875 C2.26086991 56.23500217 2.43198137 59.88039556 2.3125 64.25 C2.27833984 65.09046875 2.24417969 65.9309375 2.20898438 66.796875 C2.12676432 68.86412204 2.06169843 70.93203874 2 73 C1.67 73 1.34 73 1 73 C-0.40662083 48.6855542 -0.09635217 24.3444865 0 0 Z " fill="#CE9F37" transform="translate(308,29)"/>
<path d="M0 0 C4.95 0 9.9 0 15 0 C15.33 8.58 15.66 17.16 16 26 C16.66 26 17.32 26 18 26 C18.90286751 29.08601081 19.1216323 31.83361006 19.11352539 35.04394531 C19.11344986 36.04468079 19.11337433 37.04541626 19.11329651 38.07647705 C19.10813522 39.14952087 19.10297394 40.2225647 19.09765625 41.328125 C19.0962413 42.43226746 19.09482635 43.53640991 19.09336853 44.67401123 C19.08777258 48.19936842 19.07522079 51.72466202 19.0625 55.25 C19.05748448 57.64062408 19.05292166 60.03124916 19.04882812 62.421875 C19.03780447 68.28127168 19.02107033 74.1406313 19 80 C18.67 80 18.34 80 18 80 C18 70.1 18 60.2 18 50 C16.515 50.495 16.515 50.495 15 51 C14.97494385 50.27522461 14.9498877 49.55044922 14.92407227 48.80371094 C14.80651383 45.45236255 14.68452697 42.10118854 14.5625 38.75 C14.52318359 37.61046875 14.48386719 36.4709375 14.44335938 35.296875 C14.23629617 29.69024064 13.94960202 24.1189194 13.4375 18.53125 C13.08168042 14.52188429 12.96231439 10.76267848 13.4375 6.75 C13.53933594 5.83734375 13.64117187 4.9246875 13.74609375 3.984375 C13.82988281 3.32953125 13.91367188 2.6746875 14 2 C8.41499433 2.19898708 8.41499433 2.19898708 4 5 C2.81399669 10.91430788 2.68827654 16.92297424 2.4375 22.9375 C2.39431641 23.90751953 2.35113281 24.87753906 2.30664062 25.87695312 C2.20137907 28.25118601 2.09924293 30.62550921 2 33 C1.67 33 1.34 33 1 33 C0.67 22.11 0.34 11.22 0 0 Z " fill="#C7851D" transform="translate(196,28)"/>
<path d="M0 0 C0.99 0.33 1.98 0.66 3 1 C3.70381157 2.98723268 4.3711811 4.98777953 5 7 C5.66 7.33 6.32 7.66 7 8 C7 9.32 7 10.64 7 12 C8.175625 12.2165625 8.175625 12.2165625 9.375 12.4375 C12 13 12 13 14 14 C13.62875 15.5159375 13.62875 15.5159375 13.25 17.0625 C12.92537957 22.17527184 14.26818203 23.7780995 17 28 C17 28.66 17 29.32 17 30 C17.66 30 18.32 30 19 30 C19.66 31.98 20.32 33.96 21 36 C22.98 35.505 22.98 35.505 25 35 C24.7525 35.7425 24.505 36.485 24.25 37.25 C23.66350316 40.11714522 23.66350316 40.11714522 25.8125 42.1875 C26.534375 42.785625 27.25625 43.38375 28 44 C28.66 44.66 29.32 45.32 30 46 C30.66 45.34 31.32 44.68 32 44 C32.66 44.66 33.32 45.32 34 46 C33.69972883 47.67293936 33.36442233 49.33985384 33 51 C33.33 51.99 33.66 52.98 34 54 C34.99 54.495 34.99 54.495 36 55 C35.67 55.99 35.34 56.98 35 58 C35.33 58.66 35.66 59.32 36 60 C38.52733235 60.65555119 38.52733235 60.65555119 41 61 C40.25 67.75 40.25 67.75 38 70 C37.5781543 69.23147705 37.15630859 68.4629541 36.72167969 67.67114258 C26.29361536 48.67456183 26.29361536 48.67456183 15.625 29.8125 C11.80685527 23.1605355 8.00074091 16.50277506 4.25 9.8125 C3.81896973 9.05106689 3.38793945 8.28963379 2.94384766 7.50512695 C0 2.23169906 0 2.23169906 0 0 Z " fill="#DAB358" transform="translate(249,124)"/>
<path d="M0 0 C1.80444336 0.17456055 1.80444336 0.17456055 4 1 C5.59985352 3.25317383 5.59985352 3.25317383 7.12890625 6.20703125 C7.96905273 7.7993457 7.96905273 7.7993457 8.82617188 9.42382812 C9.39916016 10.54208984 9.97214844 11.66035156 10.5625 12.8125 C11.70689204 15.00794261 12.85392693 17.20201012 14.00390625 19.39453125 C14.75909546 20.86176636 14.75909546 20.86176636 15.52954102 22.35864258 C16.86473179 24.7570203 18.3154365 26.84047783 20 29 C20.86323503 30.4829935 21.69352073 31.98539258 22.5 33.5 C24.55525759 37.35491207 26.66085751 41.16815917 28.8359375 44.95703125 C29.33544922 45.83746094 29.83496094 46.71789062 30.34960938 47.625 C31.35417885 49.39489449 32.36829119 51.15941178 33.39257812 52.91796875 C35.9305399 57.42522037 37.71437736 60.65959361 37 66 C34.29540552 62.76203365 32.08620164 59.58774294 30.1171875 55.859375 C29.59487549 54.87984863 29.07256348 53.90032227 28.53442383 52.89111328 C27.98681396 51.8545459 27.4392041 50.81797852 26.875 49.75 C22.97982367 42.46260344 19.04817726 35.22061337 14.8125 28.125 C11.25118806 22.14885585 7.772743 16.13339178 4.375 10.0625 C3.93647705 9.28600098 3.4979541 8.50950195 3.04614258 7.70947266 C0 2.23661694 0 2.23661694 0 0 Z " fill="#A06709" transform="translate(271,128)"/>
<path d="M0 0 C0.66 0 1.32 0 2 0 C2 15.18 2 30.36 2 46 C-4.27 46 -10.54 46 -17 46 C-20.42080794 42.04920774 -22.02711834 39.85862318 -23.95263672 35.30908203 C-25.67243713 31.51750341 -27.77294391 27.9414501 -29.81274414 24.31494141 C-31.44832931 21.40444706 -33.0642084 18.48531366 -34.65625 15.55078125 C-35.10806641 14.72231689 -35.55988281 13.89385254 -36.02539062 13.0402832 C-37 11 -37 11 -37 9 C-36.34 9 -35.68 9 -35 9 C-34.566875 9.94875 -34.13375 10.8975 -33.6875 11.875 C-32.20697799 15.20041937 -32.20697799 15.20041937 -29 17 C-28.855625 17.9075 -28.71125 18.815 -28.5625 19.75 C-27.89147748 23.62701903 -26.2433749 25.81585499 -24 29 C-24 29.66 -24 30.32 -24 31 C-23.01 30.67 -22.02 30.34 -21 30 C-20.67 30.99 -20.34 31.98 -20 33 C-19.34 32.01 -18.68 31.02 -18 30 C-15.69856764 33.45214853 -15.86166146 34.23479324 -16.375 38.1875 C-16.54128906 39.53908203 -16.54128906 39.53908203 -16.7109375 40.91796875 C-16.80632812 41.60503906 -16.90171875 42.29210937 -17 43 C-11.67787852 43.79265639 -6.3503559 44.42978066 -1 45 C-1.33 44.01 -1.66 43.02 -2 42 C-1.34 42 -0.68 42 0 42 C0 28.14 0 14.28 0 0 Z " fill="#EBC674" transform="translate(325,184)"/>
<path d="M0 0 C0.33 0 0.66 0 1 0 C1.23845483 8.95530365 0.71664901 17.20217384 -1 26 C-7.6 26 -14.2 26 -21 26 C-20.67 23.36 -20.34 20.72 -20 18 C-16.83956322 16.94652107 -14.24317772 16.98260512 -10.94140625 17.03125 C-8.83498031 16.99734375 -6.99898333 16.66632778 -5 16 C-5 16.66 -5 17.32 -5 18 C-4.34 17.67 -3.68 17.34 -3 17 C-3.04125 16.2575 -3.0825 15.515 -3.125 14.75 C-3 12 -3 12 -2.0625 10.1875 C-0.45971444 6.88764738 -0.36399767 3.63997669 0 0 Z " fill="#BE7B1A" transform="translate(174,144)"/>
<path d="M0 0 C13.86 0 27.72 0 42 0 C42 38.28 42 76.56 42 116 C41.67 116 41.34 116 41 116 C40.505 60.065 40.505 60.065 40 3 C26.8 2.34 13.6 1.68 0 1 C0 0.67 0 0.34 0 0 Z " fill="#7A5320" transform="translate(24,26)"/>
<path d="M0 0 C0.66 0 1.32 0 2 0 C3.32915021 7.97490128 3.08801359 15.94186719 3 24 C-2.58384613 25.86128204 -8.31147144 25.13770571 -14 24 C-14.33 24.99 -14.66 25.98 -15 27 C-17.21211746 19.94887561 -17.20177072 13.35342179 -17 6 C-15.515 6.99 -15.515 6.99 -14 8 C-14.66 9.32 -15.32 10.64 -16 12 C-15.34 12.33 -14.68 12.66 -14 13 C-14 15.64 -14 18.28 -14 21 C-11.03 20.67 -8.06 20.34 -5 20 C-5 20.66 -5 21.32 -5 22 C-1.54937143 18.71368707 1.142967 15.7993848 2 11 C1.01 11.66 0.02 12.32 -1 13 C-1 13.99 -1 14.98 -1 16 C-1.99 16.33 -2.98 16.66 -4 17 C-4.33 14.36 -4.66 11.72 -5 9 C-3.68 8.67 -2.36 8.34 -1 8 C-0.67 5.36 -0.34 2.72 0 0 Z " fill="#D48D23" transform="translate(64,146)"/>
<path d="M0 0 C6.6 0 13.2 0 20 0 C20.33 17.16 20.66 34.32 21 52 C21.66 46.72 22.32 41.44 23 36 C23.99 36 24.98 36 26 36 C27.1875 38.5625 27.1875 38.5625 28 42 C27.33852339 43.62061768 26.66010005 45.23833954 25.86328125 46.796875 C24.30961378 50.76189063 24.03552562 55.00122128 23.52734375 59.20703125 C23 62 23 62 21 64 C20.83318891 67.08347826 20.83318891 67.08347826 21 70 C20.01 70.495 20.01 70.495 19 71 C19 47.9 19 24.8 19 1 C12.73 1 6.46 1 0 1 C0 0.67 0 0.34 0 0 Z " fill="#B87D18" transform="translate(308,28)"/>
<path d="M0 0 C0.33 0 0.66 0 1 0 C1.01030746 1.29546249 1.02061493 2.59092499 1.03123474 3.92564392 C1.12911803 16.15200263 1.23186576 28.37831214 1.33933926 40.60459042 C1.39443302 46.88977809 1.44783086 53.17497053 1.49731445 59.46020508 C1.54515843 65.52917428 1.59750751 71.59808963 1.65294075 77.66699409 C1.67327384 79.9789349 1.69200133 82.29089041 1.70907402 84.60285759 C1.73331938 87.84849214 1.76334495 91.09402678 1.79467773 94.33959961 C1.8004332 95.28906967 1.80618866 96.23853973 1.81211853 97.21678162 C1.8665649 102.19963277 2.13743917 107.06300628 2.78236485 112.00586796 C3.14933159 115.36828492 3.05330759 118.68079957 3 122.0625 C2.94697921 126.36168539 2.94691172 130.55473638 3.625 134.8125 C4 138 4 138 2 141 C0.48688602 131.85206087 -0.28564298 123.01899535 -0.22705078 113.75244141 C-0.22734283 112.51169357 -0.22763489 111.27094574 -0.22793579 109.99259949 C-0.2267938 106.64012908 -0.21687087 103.28791524 -0.20278788 99.93549013 C-0.19015392 96.41349346 -0.18910016 92.89149216 -0.18673706 89.36947632 C-0.18055905 82.7223334 -0.16419891 76.07525748 -0.14403808 69.42814386 C-0.12156345 61.85118928 -0.11065679 54.27423125 -0.10064721 46.69725156 C-0.07982873 31.13146245 -0.04472558 15.56573992 0 0 Z " fill="#301200" transform="translate(66,27)"/>
<path d="M0 0 C5.15553883 4.86882938 7.21125417 9.83844436 7.4430542 16.93530273 C7.43694453 19.26821369 7.4085798 21.60113379 7.36230469 23.93359375 C7.35313522 25.21247971 7.34396576 26.49136566 7.33451843 27.80900574 C7.309072 31.29433252 7.25869529 34.77889459 7.20364666 38.26386261 C7.15029495 41.91388517 7.12013907 45.56409982 7.08746338 49.21435547 C7.02217973 56.11691173 6.93620616 63.01904702 6.84269357 69.92127228 C6.73719271 77.7833003 6.65491673 85.64551857 6.5745368 93.5078373 C6.40876345 109.67224167 6.214002 125.83616064 6 142 C5.67 142 5.34 142 5 142 C4.99761165 141.35762705 4.99522329 140.7152541 4.99276257 140.0534153 C4.93368247 124.43872422 4.85817771 108.82421267 4.76428509 93.20969582 C4.71927773 85.65869159 4.67987464 78.10773505 4.65356445 70.55664062 C4.63062418 63.97676941 4.5972711 57.39704849 4.55129844 50.81729639 C4.5273122 47.33182488 4.50861902 43.8465027 4.50238609 40.36095047 C4.49524123 36.47435368 4.46485352 32.58813208 4.43237305 28.70166016 C4.43380814 27.54000839 4.43524323 26.37835663 4.4367218 25.1815033 C4.42418365 24.12698471 4.41164551 23.07246613 4.39872742 21.98599243 C4.39181397 20.60606833 4.39181397 20.60606833 4.38476086 19.19826698 C4.25778977 18.47283888 4.13081869 17.74741077 4 17 C3.01 16.34 2.02 15.68 1 15 C2.875 10.25 2.875 10.25 4 8 C2.68 7.34 1.36 6.68 0 6 C0 4.02 0 2.04 0 0 Z " fill="#6C4207" transform="translate(227,88)"/>
<path d="M0 0 C0.99 0 1.98 0 3 0 C3.125 2.875 3.125 2.875 3 6 C2.34 6.66 1.68 7.32 1 8 C1.99 8.33 2.98 8.66 4 9 C3.67 11.97 3.34 14.94 3 18 C6.71599191 18.20086443 7.77208445 18.1519437 11 16 C12 19 12 19 11.5 21.125 C10 23 10 23 6.625 23.875 C3.18729234 23.99354164 1.77703351 23.88838279 -1 22 C-0.34 22.99 0.32 23.98 1 25 C1.32727273 30.34545455 1.32727273 30.34545455 0 33 C-0.66 33 -1.32 33 -2 33 C-2 23.76 -2 14.52 -2 5 C-1.01 4.67 -0.02 4.34 1 4 C0.67 2.68 0.34 1.36 0 0 Z " fill="#0D0C0B" transform="translate(352,23)"/>
<path d="M0 0 C0.33 0 0.66 0 1 0 C1 37.95 1 75.9 1 115 C-5.93 115 -12.86 115 -20 115 C-20 114.34 -20 113.68 -20 113 C-18 111.375 -18 111.375 -16 110 C-16 111.32 -16 112.64 -16 114 C-14.58249437 113.88490339 -13.16598831 113.75746342 -11.75 113.625 C-10.56664062 113.52058594 -10.56664062 113.52058594 -9.359375 113.4140625 C-6.914123 112.98492887 -5.15163097 112.21399362 -3 111 C-3 111.66 -3 112.32 -3 113 C-2.01 113 -1.02 113 0 113 C0 75.71 0 38.42 0 0 Z " fill="#91601D" transform="translate(348,115)"/>
<path d="M0 0 C0.66 1.32 1.32 2.64 2 4 C2.99 4 3.98 4 5 4 C5.33 2.68 5.66 1.36 6 0 C7.32 0.33 8.64 0.66 10 1 C10.33 2.65 10.66 4.3 11 6 C10.01 6 9.02 6 8 6 C7.67 16.56 7.34 27.12 7 38 C6.67 38 6.34 38 6 38 C5.67 30.08 5.34 22.16 5 14 C4.67 17.63 4.34 21.26 4 25 C3.67 23.68 3.34 22.36 3 21 C2.34 21 1.68 21 1 21 C0.21311555 18.22276075 -0.11949924 15.77389923 -0.09765625 12.890625 C-0.09443359 12.13652344 -0.09121094 11.38242187 -0.08789062 10.60546875 C-0.07951172 9.82816406 -0.07113281 9.05085938 -0.0625 8.25 C-0.05798828 7.45722656 -0.05347656 6.66445313 -0.04882812 5.84765625 C-0.03708565 3.89840492 -0.01915146 1.94919262 0 0 Z " fill="#995F02" transform="translate(211,33)"/>
<path d="M0 0 C0.33 0 0.66 0 1 0 C1.57535937 13.31787726 -5.49495821 26.09792066 -14 36 C-15.81243961 37.6309326 -17.66867284 39.21432518 -19.5625 40.75 C-20.98755859 41.91789062 -20.98755859 41.91789062 -22.44140625 43.109375 C-25 45 -25 45 -28 46 C-28.495 44.515 -28.495 44.515 -29 43 C-27.576875 42.319375 -27.576875 42.319375 -26.125 41.625 C-22.99686321 40.19761746 -22.99686321 40.19761746 -21 38 C-20.32348793 35.80295489 -20.32348793 35.80295489 -19.875 33.375 C-19.70742187 32.55773437 -19.53984375 31.74046875 -19.3671875 30.8984375 C-19.24601563 30.27195313 -19.12484375 29.64546875 -19 29 C-18.34 29.99 -17.68 30.98 -17 32 C-16.67 32.33 -16.34 32.66 -16 33 C-13.49994198 31.70686654 -12.20844653 30.55140782 -11.20703125 27.90234375 C-10.73239893 26.28964276 -10.25976909 24.67635118 -9.7890625 23.0625 C-9 21 -9 21 -6.875 19.5 C-4.7970332 18.15975423 -4.7970332 18.15975423 -4.5234375 15.83203125 C-4.27601882 13.55224485 -4.09605201 11.2908405 -4 9 C-3.34 9 -2.68 9 -2 9 C-1.7834375 7.88625 -1.7834375 7.88625 -1.5625 6.75 C-1.09812508 4.47972261 -0.58136431 2.24240521 0 0 Z " fill="#D79B18" transform="translate(151,173)"/>
<path d="M0 0 C0.02475901 5.60505859 0.04288802 11.21008518 0.05493164 16.81518555 C0.05995364 18.72111567 0.06677248 20.62704195 0.07543945 22.53295898 C0.08759846 25.27588856 0.09324971 28.0187671 0.09765625 30.76171875 C0.10281754 31.61086349 0.10797882 32.46000824 0.11329651 33.33488464 C0.11367627 37.35943048 0.0089224 41.07253392 -1 45 C-1.33 45 -1.66 45 -2 45 C-2.92849068 34.90087832 -2.98829293 25.12828355 -2.31860352 15.0090332 C-2.26502686 14.155271 -2.2114502 13.30150879 -2.15625 12.421875 C-2.10275391 11.66487305 -2.04925781 10.90787109 -1.99414062 10.12792969 C-2.00132458 7.51895808 -2.08314682 4.91685318 -4 3 C-5.69141656 3.08963062 -7.37959602 3.24577676 -9.0625 3.4375 C-9.98160156 3.53933594 -10.90070312 3.64117188 -11.84765625 3.74609375 C-12.91306641 3.87177734 -12.91306641 3.87177734 -14 4 C-14.83240569 7.77030815 -15.26647955 11.46423414 -15.5625 15.3125 C-15.64628906 16.38113281 -15.73007812 17.44976562 -15.81640625 18.55078125 C-15.87699219 19.35902344 -15.93757813 20.16726562 -16 21 C-16.33 21 -16.66 21 -17 21 C-17 14.4 -17 7.8 -17 1 C-13.0709375 0.7525 -13.0709375 0.7525 -9.0625 0.5 C-8.2362915 0.44779297 -7.41008301 0.39558594 -6.55883789 0.34179688 C-1.11111111 0 -1.11111111 0 0 0 Z " fill="#ECC474" transform="translate(42,27)"/>
<path d="M0 0 C0.33 0 0.66 0 1 0 C1.66 4.95 2.32 9.9 3 15 C-3.6 15 -10.2 15 -17 15 C-18 11 -18 11 -17 8 C-11.39 8 -5.78 8 0 8 C0 5.36 0 2.72 0 0 Z " fill="#BC7A18" transform="translate(67,162)"/>
<path d="M0 0 C0.33 0 0.66 0 1 0 C1.02505615 0.83321777 1.0501123 1.66643555 1.07592773 2.52490234 C1.19535591 6.47496881 1.31608623 10.42499417 1.4375 14.375 C1.45956512 15.09507233 1.48163025 15.81514465 1.50436401 16.55703735 C1.83971152 27.45197427 2.22117449 38.34392776 2.69506836 49.23388672 C3.53051138 69.43580674 3.53051138 69.43580674 2 76 C2.66 76 3.32 76 4 76 C4.05410687 77.77049689 4.09284119 79.54146849 4.125 81.3125 C4.14820313 82.29863281 4.17140625 83.28476563 4.1953125 84.30078125 C4 87 4 87 2 90 C0.83060154 83.27841558 0.648271 76.56045665 0.4375 69.75 C0.41632111 69.09201416 0.39514221 68.43402832 0.37332153 67.75610352 C-0.33103956 45.18188041 -0.08830441 22.58190156 0 0 Z " fill="#D7A63B" transform="translate(196,29)"/>
<path d="M0 0 C2.59579847 0.9921957 3.76451254 1.53693324 5.046875 4.05859375 C5.27890625 4.84363281 5.5109375 5.62867188 5.75 6.4375 C6.11351562 7.61119141 6.11351562 7.61119141 6.484375 8.80859375 C7 11 7 11 7 14 C4.01758453 14.77321882 1.02419525 15.41196203 -2 16 C-2.33 18.97 -2.66 21.94 -3 25 C-3.33 25 -3.66 25 -4 25 C-4 19.06 -4 13.12 -4 7 C-2.68 6.67 -1.36 6.34 0 6 C-0.185625 5.38125 -0.37125 4.7625 -0.5625 4.125 C-1 2 -1 2 0 0 Z M3 5 C4 7 4 7 4 7 Z " fill="#DA9C12" transform="translate(223,40)"/>
<path d="M0 0 C1.66611905 -0.042721 3.33382885 -0.04063832 5 0 C6 1 6 1 6.12304783 2.87219334 C6.12212604 3.69719806 6.12120424 4.52220278 6.12025452 5.37220764 C6.12162918 6.31596756 6.12300385 7.25972748 6.12442017 8.23208618 C6.12082489 9.27577362 6.11722961 10.31946106 6.11352539 11.39477539 C6.11367142 12.48732132 6.11381744 13.57986725 6.1139679 14.70552063 C6.11326822 18.33625233 6.10547329 21.96693346 6.09765625 25.59765625 C6.09579226 28.10729443 6.09436827 30.61693298 6.09336853 33.12657166 C6.08993348 39.06934593 6.08204273 45.01210384 6.07201904 50.95486969 C6.05976253 58.38201925 6.05437792 65.80917105 6.04882812 73.23632812 C6.03808811 86.49089473 6.02120082 99.74544621 6 113 C5.67 113 5.34 113 5 113 C4.67 76.7 4.34 40.4 4 3 C2.68 2.34 1.36 1.68 0 1 C0 0.67 0 0.34 0 0 Z " fill="#8B5A11" transform="translate(59,28)"/>
<path d="M0 0 C3.53586014 3.17320782 5.58578031 5.16743695 6 10 C7.32 10 8.64 10 10 10 C10.20625 10.94875 10.4125 11.8975 10.625 12.875 C11.84659928 17.35115857 14.34800414 20.87381337 16.953125 24.66796875 C18 27 18 27 17.171875 29.30078125 C16.78515625 29.86152344 16.3984375 30.42226562 16 31 C13.84261682 28.9861609 12.34234338 27.09796497 10.95703125 24.49609375 C10.60576172 23.83802734 10.25449219 23.17996094 9.89257812 22.50195312 C9.53615234 21.82068359 9.17972656 21.13941406 8.8125 20.4375 C8.44447266 19.75236328 8.07644531 19.06722656 7.69726562 18.36132812 C5 13.26204487 5 13.26204487 5 11 C4.34 11 3.68 11 3 11 C2.30034557 9.73581754 1.61565237 8.46334598 0.9375 7.1875 C0.55464844 6.47980469 0.17179688 5.77210937 -0.22265625 5.04296875 C-1 3 -1 3 0 0 Z " fill="#D99221" transform="translate(231,55)"/>
<path d="M0 0 C0.33 0 0.66 0 1 0 C1 13.86 1 27.72 1 42 C-2.24394085 38.75605915 -2.35034502 37.96085689 -2.39118958 33.60452271 C-2.38197983 32.89198334 -2.37277008 32.17944397 -2.36328125 31.4453125 C-2.36377975 30.70675018 -2.36427826 29.96818787 -2.36479187 29.20724487 C-2.36245279 27.6454601 -2.35273391 26.08367146 -2.33618164 24.52197266 C-2.31265417 22.14060421 -2.31561352 19.76036091 -2.32226562 17.37890625 C-2.31668623 15.85936837 -2.30957471 14.33983518 -2.30078125 12.8203125 C-2.30169266 12.11182159 -2.30260406 11.40333069 -2.30354309 10.67337036 C-2.24684011 6.68391259 -1.75398126 3.59524699 0 0 Z " fill="#925906" transform="translate(213,131)"/>
<path d="M0 0 C5.28 0 10.56 0 16 0 C14 2 14 2 11.3984375 2.1953125 C10.40070313 2.17210937 9.40296875 2.14890625 8.375 2.125 C6.87066406 2.09792969 6.87066406 2.09792969 5.3359375 2.0703125 C4.56507813 2.04710937 3.79421875 2.02390625 3 2 C2.19160678 5.52796807 1.89155409 8.74368676 1.9375 12.359375 C1.94587891 13.38554932 1.95425781 14.41172363 1.96289062 15.46899414 C1.97513672 16.55172607 1.98738281 17.63445801 2 18.75 C2.06481574 28.87819578 1.77773922 38.90327829 1 49 C1.66 49.33 2.32 49.66 3 50 C2.67 50.99 2.34 51.98 2 53 C1.93334624 54.39439664 1.91461801 55.79169875 1.9375 57.1875 C1.958125 58.445625 1.97875 59.70375 2 61 C1.01 61.495 1.01 61.495 0 62 C0 41.54 0 21.08 0 0 Z " fill="#F2C768" transform="translate(139,27)"/>
<path d="M0 0 C8.58 0 17.16 0 26 0 C29.96 6.93 33.92 13.86 38 21 C37.01 21 36.02 21 35 21 C32.73468338 18.73468338 32.13284835 17.09599887 31.75 13.9375 C31.5025 13.298125 31.255 12.65875 31 12 C29.33927151 11.31867549 27.672233 10.65257873 26 10 C24.32501756 7.48752634 23.62935259 4.93697877 23 2 C21.35 2.66 19.7 3.32 18 4 C17.67 3.34 17.34 2.68 17 2 C14.54137599 1.94616152 12.0839245 1.90640962 9.625 1.875 C8.92632812 1.85824219 8.22765625 1.84148438 7.5078125 1.82421875 C5.67102514 1.80655733 3.83398037 1.89696739 2 2 C1.34 2.66 0.68 3.32 0 4 C0 2.68 0 1.36 0 0 Z " fill="#A97527" transform="translate(211,28)"/>
<path d="M0 0 C2.48002593 2.48002593 2.29694693 3.32832513 2.3125 6.75 C2.23487754 11.24563419 1.27889843 14.08029471 -1 18 C-1.165 18.845625 -1.33 19.69125 -1.5 20.5625 C-2 23 -2 23 -3.5 25.4375 C-5.18927946 28.3233524 -5.61658574 30.70263737 -6 34 C-7.485 34.495 -7.485 34.495 -9 35 C-10.66710346 36.49985609 -10.66710346 36.49985609 -12 38 C-12.66 37.01 -13.32 36.02 -14 35 C-12.6696875 33.63875 -12.6696875 33.63875 -11.3125 32.25 C-3.56626999 23.09702539 -1.79123191 11.47553453 0 0 Z " fill="#D89E23" transform="translate(137,160)"/>
<path d="M0 0 C2.59567991 2.33687311 4.07311543 4.72712891 5.6875 7.8125 C7.44074989 11.13351742 9.22600098 14.41141434 11.16796875 17.625 C11.5338208 18.23754639 11.89967285 18.85009277 12.27661133 19.48120117 C12.99419325 20.67759637 13.72152891 21.86820976 14.4597168 23.05200195 C16.72410107 26.86573084 17.38731574 29.58593616 17 34 C12.60353236 28.73665688 9.51152294 23.00693676 6.25 17 C5.64800781 15.91976562 5.04601562 14.83953125 4.42578125 13.7265625 C3.85730469 12.68242187 3.28882813 11.63828125 2.703125 10.5625 C2.18395508 9.61503906 1.66478516 8.66757813 1.12988281 7.69140625 C-0.04856919 4.88430711 -0.23616178 3.00867383 0 0 Z " fill="#955E08" transform="translate(291,160)"/>
<path d="M0 0 C3.70921138 0.73218706 5.96538942 2.39857383 8.984375 4.65625 C12.41631433 6.94420956 16.18953111 8.45334709 20 10 C19.67 11.32 19.34 12.64 19 14 C16.61435923 13.42415568 14.33317216 12.77772405 12 12 C12 11.01 12 10.02 12 9 C10.515 9.185625 10.515 9.185625 9 9.375 C3.88858819 9.43771671 0.68036253 6.21195275 -3 3 C-2.67 2.34 -2.34 1.68 -2 1 C-1.34 1.33 -0.68 1.66 0 2 C0 1.34 0 0.68 0 0 Z " fill="#E49928" transform="translate(56,191)"/>
<path d="M0 0 C4.95 0 9.9 0 15 0 C15 8.25 15 16.5 15 25 C14.67 25 14.34 25 14 25 C13.1104875 17.1586052 12.99779463 9.83262041 14 2 C8.41499433 2.19898708 8.41499433 2.19898708 4 5 C2.81399669 10.91430788 2.68827654 16.92297424 2.4375 22.9375 C2.39431641 23.90751953 2.35113281 24.87753906 2.30664062 25.87695312 C2.20137907 28.25118601 2.09924293 30.62550921 2 33 C1.67 33 1.34 33 1 33 C0.67 22.11 0.34 11.22 0 0 Z " fill="#CF981B" transform="translate(196,28)"/>
<path d="M0 0 C0.66 0 1.32 0 2 0 C2 5.61 2 11.22 2 17 C0.68 17 -0.64 17 -2 17 C-2 23.6 -2 30.2 -2 37 C-2.33 37 -2.66 37 -3 37 C-3.04951788 32.5159659 -3.08577526 28.03207761 -3.10986328 23.54785156 C-3.11990744 22.02308377 -3.13354531 20.49833516 -3.15087891 18.97363281 C-3.17519738 16.77924862 -3.18649889 14.58511958 -3.1953125 12.390625 C-3.20578613 11.07094727 -3.21625977 9.75126953 -3.22705078 8.39160156 C-2.99245553 4.88730352 -2.51109555 2.51109555 0 0 Z " fill="#9D6D2A" transform="translate(136,75)"/>
<path d="M0 0 C0.33 0 0.66 0 1 0 C1 15.18 1 30.36 1 46 C-5.93 46 -12.86 46 -20 46 C-19.67 45.34 -19.34 44.68 -19 44 C-14.05 44 -9.1 44 -4 44 C-4 42.68 -4 41.36 -4 40 C-2.515 39.505 -2.515 39.505 -1 39 C-1.495 36.525 -1.495 36.525 -2 34 C-1.34 34 -0.68 34 0 34 C0 22.78 0 11.56 0 0 Z " fill="#96631D" transform="translate(231,184)"/>
<path d="M0 0 C0.66 0 1.32 0 2 0 C2 15.18 2 30.36 2 46 C-4.27 46 -10.54 46 -17 46 C-17 45.01 -17 44.02 -17 43 C-16.030625 43.144375 -15.06125 43.28875 -14.0625 43.4375 C-9.71947831 44.06047442 -5.36234766 44.53507859 -1 45 C-1.495 43.515 -1.495 43.515 -2 42 C-1.34 42 -0.68 42 0 42 C0 28.14 0 14.28 0 0 Z " fill="#FAD381" transform="translate(325,184)"/>
<path d="M0 0 C0.33 0 0.66 0 1 0 C1.31177281 5.01660389 1.61463682 10.0336388 1.90942383 15.05126953 C2.01084437 16.75649335 2.11465546 18.4615768 2.22094727 20.16650391 C2.37371446 22.62368892 2.5177463 25.08125808 2.66015625 27.5390625 C2.70906509 28.29555084 2.75797394 29.05203918 2.80836487 29.83145142 C3.04330091 34.0496843 2.87237104 37.86410318 2 42 C2.66 42.33 3.32 42.66 4 43 C3.85866501 44.77119803 3.71176792 46.54195287 3.5625 48.3125 C3.48128906 49.29863281 3.40007812 50.28476563 3.31640625 51.30078125 C3 54 3 54 2 57 C2.66 57.33 3.32 57.66 4 58 C2.515 58.495 2.515 58.495 1 59 C0.09875284 45.77696665 -0.12484823 32.62576356 -0.0625 19.375 C-0.05746655 17.48177204 -0.05290696 15.58854276 -0.04882812 13.6953125 C-0.03798802 9.1301747 -0.02082912 4.56510269 0 0 Z " fill="#E6C573" transform="translate(196,144)"/>
<path d="M0 0 C5.61 0 11.22 0 17 0 C17 19.14 17 38.28 17 58 C16.67 58 16.34 58 16 58 C15.34556621 39.66018932 14.83480778 21.35469091 15 3 C8.39231321 1.50329536 8.39231321 1.50329536 2 3 C1.53476937 4.89533342 1.53476937 4.89533342 1.375 7.0625 C1.25125 8.361875 1.1275 9.66125 1 11 C0.67 11 0.34 11 0 11 C0 7.37 0 3.74 0 0 Z " fill="#DCA224" transform="translate(310,29)"/>
<path d="M0 0 C2.33944736 0.28730055 4.6739143 0.61936779 7 1 C7 3.33333333 7 5.66666667 7 8 C8.98 8 10.96 8 13 8 C13.433125 9.093125 13.86625 10.18625 14.3125 11.3125 C15.49495641 14.09408793 16.60800043 16.06361939 19 18 C12.096943 18 6.19207696 10.42149318 1.56640625 5.83203125 C0 4 0 4 -1 1 C-0.67 0.67 -0.34 0.34 0 0 Z " fill="#DAA838" transform="translate(37,200)"/>
<path d="M0 0 C0.33 0 0.66 0 1 0 C1.02722517 2.20826378 1.04649729 4.41662638 1.0625 6.625 C1.07410156 7.85476562 1.08570313 9.08453125 1.09765625 10.3515625 C1.00863924 13.67723791 0.63686087 16.74047588 0 20 C-2.60582371 20.93065133 -3.64198224 21.14917407 -6.25 20.0625 C-7.11625 19.5365625 -7.11625 19.5365625 -8 19 C-8.99 19.66 -9.98 20.32 -11 21 C-13.26171875 21.4140625 -13.26171875 21.4140625 -15.6875 21.625 C-16.49574219 21.69976562 -17.30398437 21.77453125 -18.13671875 21.8515625 C-19.05904297 21.92503906 -19.05904297 21.92503906 -20 22 C-19.67 20.35 -19.34 18.7 -19 17 C-18.32453125 17.01160156 -17.6490625 17.02320313 -16.953125 17.03515625 C-16.06109375 17.04417969 -15.1690625 17.05320313 -14.25 17.0625 C-13.36828125 17.07410156 -12.4865625 17.08570313 -11.578125 17.09765625 C-9.2181162 17.00826198 -7.25501476 16.66912821 -5 16 C-5 16.66 -5 17.32 -5 18 C-4.34 17.67 -3.68 17.34 -3 17 C-3.04125 16.2575 -3.0825 15.515 -3.125 14.75 C-3 12 -3 12 -2.0625 10.1875 C-0.45971444 6.88764738 -0.36399767 3.63997669 0 0 Z " fill="#D3912C" transform="translate(174,144)"/>
<path d="M0 0 C0.74958984 0.00451172 1.49917969 0.00902344 2.27148438 0.01367188 C4.11852383 0.02543646 5.96552213 0.04337135 7.8125 0.0625 C7.4825 1.0525 7.1525 2.0425 6.8125 3.0625 C4.3125 4.1875 4.3125 4.1875 1.8125 5.0625 C1.4825 5.3925 1.1525 5.7225 0.8125 6.0625 C-2.00306784 6.13480993 -4.80542211 6.05873631 -7.62109375 6 C-10.17737685 5.88022784 -10.17737685 5.88022784 -12.1875 7.0625 C-11.8575 5.0825 -11.5275 3.1025 -11.1875 1.0625 C-7.42449626 -0.19183458 -3.91539091 -0.04445422 0 0 Z " fill="#AF6F11" transform="translate(164.1875,168.9375)"/>
<path d="M0 0 C0.33 0 0.66 0 1 0 C1.02689449 2.95839355 1.04678741 5.91654427 1.0625 8.875 C1.07087891 9.71675781 1.07925781 10.55851563 1.08789062 11.42578125 C1.09111328 12.23144531 1.09433594 13.03710938 1.09765625 13.8671875 C1.10289307 14.61081543 1.10812988 15.35444336 1.11352539 16.12060547 C1 18 1 18 0 20 C-0.66 20 -1.32 20 -2 20 C-2.33 21.98 -2.66 23.96 -3 26 C-3.33 26 -3.66 26 -4 26 C-4 18.08 -4 10.16 -4 2 C-3.67 2 -3.34 2 -3 2 C-2.67 3.65 -2.34 5.3 -2 7 C-1.34 4.69 -0.68 2.38 0 0 Z " fill="#A76E1A" transform="translate(137,126)"/>
<path d="M0 0 C0.33 0 0.66 0 1 0 C1.02555006 6.34968192 1.04295013 12.69935037 1.05493164 19.04907227 C1.05993155 21.20500178 1.06673365 23.36092796 1.07543945 25.5168457 C1.08769663 28.63233265 1.09327188 31.74777441 1.09765625 34.86328125 C1.10281754 35.81270096 1.10797882 36.76212067 1.11329651 37.74031067 C1.11382761 44.21020446 0.68745634 50.56745286 0 57 C-0.33 57 -0.66 57 -1 57 C-2.32915021 49.02509872 -2.08801359 41.05813281 -2 33 C-1.67 33 -1.34 33 -1 33 C-0.67 22.11 -0.34 11.22 0 0 Z " fill="#C7821B" transform="translate(330,98)"/>
<path d="M0 0 C0.70189453 0.05671875 1.40378906 0.1134375 2.12695312 0.171875 C3.85630285 0.31304641 5.58454088 0.46771959 7.3125 0.625 C6.9825 1.285 6.6525 1.945 6.3125 2.625 C11.2625 2.625 16.2125 2.625 21.3125 2.625 C15.89421226 5.33414387 11.28295407 4.95510157 5.3125 4.9375 C3.6728125 4.96166992 3.6728125 4.96166992 2 4.98632812 C0.948125 4.98697266 -0.10375 4.98761719 -1.1875 4.98828125 C-2.1465625 4.99126221 -3.105625 4.99424316 -4.09375 4.99731445 C-7.08370314 4.56812784 -8.45901887 3.61269742 -10.6875 1.625 C-6.92241505 -0.88505664 -4.29288391 -0.4008295 0 0 Z " fill="#A76B0D" transform="translate(83.6875,201.375)"/>
<path d="M0 0 C1.98 0.33 3.96 0.66 6 1 C4.68467237 3.63065526 3.03341155 4.21482013 0.3671875 5.26953125 C-11.97462993 9.07797986 -25.24856116 8.22516803 -38 8 C-38 7.67 -38 7.34 -38 7 C-36.68386719 6.95101562 -35.36773437 6.90203125 -34.01171875 6.8515625 C-18.44840009 7.36213176 -18.44840009 7.36213176 -5 2 C-3.68 2 -2.36 2 -1 2 C-0.67 1.34 -0.34 0.68 0 0 Z " fill="#C8962A" transform="translate(115,218)"/>
<path d="M0 0 C3.2910841 3.60957611 4.54663921 6.12637153 5 11 C2.42385222 11.95412881 1.08323761 12.01981848 -1.625 11.375 C-4.58700229 9.66015657 -5.06677104 8.22388187 -6 5 C-4.68 4.01 -3.36 3.02 -2 2 C-1.67 2.33 -1.34 2.66 -1 3 C-0.67 2.01 -0.34 1.02 0 0 Z " fill="#D58D27" transform="translate(282,109)"/>
<path d="M0 0 C0 3.97054597 -1.3139381 5.16471244 -4 8 C-6.25 8.8125 -6.25 8.8125 -8 9 C-8 8.34 -8 7.68 -8 7 C-8.89847656 7.65484375 -9.79695313 8.3096875 -10.72265625 8.984375 C-16.00955855 12.00546203 -21.51768261 11.43268873 -27.4375 11.25 C-28.55060547 11.23195312 -29.66371094 11.21390625 -30.81054688 11.1953125 C-33.54126646 11.14843319 -36.27017386 11.08282819 -39 11 C-39 10.67 -39 10.34 -39 10 C-37.25976562 9.96132812 -37.25976562 9.96132812 -35.484375 9.921875 C-22.13991581 9.49237841 -11.50806145 7.09082574 0 0 Z " fill="#D69A1B" transform="translate(122,196)"/>
<path d="M0 0 C0.2475 0.5775 0.495 1.155 0.75 1.75 C1.93990475 4.13449889 1.93990475 4.13449889 4.125 6.125 C6 8 6 8 6 10 C5.01 10 4.02 10 3 10 C3 9.34 3 8.68 3 8 C2.01 8 1.02 8 0 8 C-0.04898437 9.14339844 -0.09796875 10.28679687 -0.1484375 11.46484375 C-0.22345189 12.95575473 -0.29900028 14.44663892 -0.375 15.9375 C-0.4059375 16.69224609 -0.436875 17.44699219 -0.46875 18.22460938 C-0.5726315 20.15507395 -0.77895614 22.07942081 -1 24 C-1.66 24.33 -2.32 24.66 -3 25 C-3 19.06 -3 13.12 -3 7 C-2.34 7 -1.68 7 -1 7 C-1.020625 6.030625 -1.04125 5.06125 -1.0625 4.0625 C-1 1 -1 1 0 0 Z " fill="#B37418" transform="translate(331,56)"/>
<path d="M0 0 C0.99 0.66 1.98 1.32 3 2 C2.01 4.31 1.02 6.62 0 9 C1.32 9.66 2.64 10.32 4 11 C4 11.66 4 12.32 4 13 C2.68 13.99 1.36 14.98 0 16 C-1.98 12.37 -3.96 8.74 -6 5 C-4.02 3.35 -2.04 1.7 0 0 Z " fill="#F0C663" transform="translate(301,199)"/>
<path d="M0 0 C0.66 0 1.32 0 2 0 C2.80974903 2.84313331 3.12241859 5.35702965 3.11352539 8.30957031 C3.11341209 9.5704245 3.11341209 9.5704245 3.11329651 10.85675049 C3.10813522 11.75480408 3.10297394 12.65285767 3.09765625 13.578125 C3.0962413 14.5046991 3.09482635 15.43127319 3.09336853 16.38592529 C3.08777824 19.34064992 3.0752275 22.29529833 3.0625 25.25 C3.05748375 27.25520724 3.05292106 29.26041567 3.04882812 31.265625 C3.03781199 36.17711263 3.020554 41.0885434 3 46 C2.67 46 2.34 46 2 46 C1.67 33.79 1.34 21.58 1 9 C0.34 9.99 -0.32 10.98 -1 12 C-1.02687279 10.18757948 -1.04633715 8.37504767 -1.0625 6.5625 C-1.07410156 5.55316406 -1.08570313 4.54382813 -1.09765625 3.50390625 C-1 1 -1 1 0 0 Z " fill="#A8670D" transform="translate(212,124)"/>
<path d="M0 0 C0.66 0 1.32 0 2 0 C1.731875 0.53625 1.46375 1.0725 1.1875 1.625 C0.95477689 4.57282601 1.5799856 5.04811495 3.4375 7.25 C4.283125 8.1575 5.12875 9.065 6 10 C5.01 10.495 5.01 10.495 4 11 C4 11.66 4 12.32 4 13 C3.34 13 2.68 13 2 13 C1.34 13.66 0.68 14.32 0 15 C-1.65 11.7 -3.3 8.4 -5 5 C-4.34 5 -3.68 5 -3 5 C-2.505 4.175 -2.01 3.35 -1.5 2.5 C-1.005 1.675 -0.51 0.85 0 0 Z " fill="#140F0C" transform="translate(285,99)"/>
<path d="M0 0 C0.99 0 1.98 0 3 0 C4.1875 2.5625 4.1875 2.5625 5 6 C4.33982259 7.61743465 3.66361678 9.23219504 2.87109375 10.7890625 C0.98017182 15.58844283 0.65068993 20.90930823 0 26 C-0.33 26 -0.66 26 -1 26 C-1.02724423 23.16660035 -1.04695589 20.33346883 -1.0625 17.5 C-1.07087891 16.70851563 -1.07925781 15.91703125 -1.08789062 15.1015625 C-1.10891185 9.97238283 -0.73937287 5.07663894 0 0 Z " fill="#D8922A" transform="translate(331,64)"/>
<path d="M0 0 C6.26086632 3.20323393 8.27130728 7.67329653 11 14 C10.01 14.495 10.01 14.495 9 15 C8.67 13.68 8.34 12.36 8 11 C7.34 11 6.68 11 6 11 C5.34 10.01 4.68 9.02 4 8 C2.68 9.32 1.36 10.64 0 12 C0 10.68 0 9.36 0 8 C-0.66 7.67 -1.32 7.34 -2 7 C-1.42415568 4.61435923 -0.77772405 2.33317216 0 0 Z " fill="#C27D16" transform="translate(245,48)"/>
<path d="M0 0 C0.33 0 0.66 0 1 0 C1 7.92 1 15.84 1 24 C-0.32 24.33 -1.64 24.66 -3 25 C-4.75 23.875 -4.75 23.875 -6 22 C-6.1875 19.3125 -6.1875 19.3125 -6 17 C-4.35 17 -2.7 17 -1 17 C-0.67 11.39 -0.34 5.78 0 0 Z " fill="#996418" transform="translate(348,29)"/>
<path d="M0 0 C3.90625 2.6015625 3.90625 2.6015625 4.75 6.1875 C4.8325 7.115625 4.915 8.04375 5 9 C4.01 9.33 3.02 9.66 2 10 C1.9419034 13.9166043 1.90637107 17.83309763 1.875 21.75 C1.85824219 22.86117187 1.84148437 23.97234375 1.82421875 25.1171875 C1.81777344 26.18710937 1.81132812 27.25703125 1.8046875 28.359375 C1.79421387 29.34389648 1.78374023 30.32841797 1.77294922 31.34277344 C2.00510382 34.05973111 2.60963727 35.68112513 4 38 C3.01 37.67 2.02 37.34 1 37 C-0.55977064 33.88045872 -0.12104126 30.57040616 -0.09765625 27.1484375 C-0.0962413 26.37440582 -0.09482635 25.60037415 -0.09336853 24.80288696 C-0.08776403 22.32688558 -0.07521083 19.85097412 -0.0625 17.375 C-0.05748558 15.69791797 -0.05292257 14.02083453 -0.04882812 12.34375 C-0.03779315 8.22913194 -0.02052554 4.11458122 0 0 Z " fill="#D5991D" transform="translate(218,37)"/>
<path d="M0 0 C2 3 2 3 2 5 C1.01 5.495 1.01 5.495 0 6 C-0.65555119 8.52733235 -0.65555119 8.52733235 -1 11 C-1.66 11 -2.32 11 -3 11 C-3.33 12.65 -3.66 14.3 -4 16 C-7.96 16.495 -7.96 16.495 -12 17 C-11.13375 16.05125 -10.2675 15.1025 -9.375 14.125 C-5.62965751 9.78218621 -2.82235671 4.97415349 0 0 Z " fill="#965D05" transform="translate(146,194)"/>
<path d="M0 0 C1 2 1 2 0.25 4.65234375 C-6.96787202 23.62181365 -6.96787202 23.62181365 -15 29 C-14.67 27.02 -14.34 25.04 -14 23 C-12.68 22.67 -11.36 22.34 -10 22 C-10 20.68 -10 19.36 -10 18 C-9.34 18 -8.68 18 -8 18 C-8 17.34 -8 16.68 -8 16 C-7.34 16 -6.68 16 -6 16 C-5.81824219 15.43152344 -5.63648438 14.86304688 -5.44921875 14.27734375 C-3.85915366 9.39298997 -2.09540222 4.68970973 0 0 Z " fill="#7F5418" transform="translate(171,176)"/>
<path d="M0 0 C3.55696901 3.17923778 5.55711981 6.53292272 7.75 10.75 C8.22373047 11.65298828 8.22373047 11.65298828 8.70703125 12.57421875 C9.47797895 14.046028 10.23992324 15.52254742 11 17 C9.68 17.33 8.36 17.66 7 18 C5.63336613 15.56876731 4.2816133 13.13113837 2.9375 10.6875 C2.35258789 9.65206055 2.35258789 9.65206055 1.75585938 8.59570312 C0.75962517 6.77074312 -0.12752842 4.88726123 -1 3 C-0.67 2.01 -0.34 1.02 0 0 Z " fill="#CB891E" transform="translate(263,111)"/>
<path d="M0 0 C4.04836816 1.48733526 5.28137826 3.69413593 7.25 7.4375 C7.77078125 8.40558594 8.2915625 9.37367187 8.828125 10.37109375 C10 13 10 13 10 16 C10.66 16 11.32 16 12 16 C12 16.66 12 17.32 12 18 C11.01 18.33 10.02 18.66 9 19 C6 13.25 6 13.25 6 11 C5.01 11.33 4.02 11.66 3 12 C3 10.68 3 9.36 3 8 C2.34 7.34 1.68 6.68 1 6 C0.60235737 4.01178687 0.26224651 2.01055661 0 0 Z " fill="#E89A27" transform="translate(264,83)"/>
<path d="M0 0 C0.804375 0.33 1.60875 0.66 2.4375 1 C4.95510483 2.31205254 4.95510483 2.31205254 7.3125 1.125 C7.869375 0.75375 8.42625 0.3825 9 0 C9 0.99 9 1.98 9 3 C8.34 3 7.68 3 7 3 C7 3.99 7 4.98 7 6 C9.97 6 12.94 6 16 6 C14 8 14 8 12.1171875 8.08203125 C6.66202403 7.42627118 2.07223113 6.12111483 -3 4 C-3 3.34 -3 2.68 -3 2 C-2.01 1.34 -1.02 0.68 0 0 Z " fill="#D29F2C" transform="translate(62,217)"/>
<path d="M0 0 C0.66 0 1.32 0 2 0 C2.33 3.96 2.66 7.92 3 12 C1.68 12.33 0.36 12.66 -1 13 C-1 13.99 -1 14.98 -1 16 C-1.99 16.33 -2.98 16.66 -4 17 C-4.33 14.36 -4.66 11.72 -5 9 C-3.68 8.67 -2.36 8.34 -1 8 C-0.67 5.36 -0.34 2.72 0 0 Z " fill="#D68F2A" transform="translate(64,146)"/>
<path d="M0 0 C0.99 0.66 1.98 1.32 3 2 C3 2.66 3 3.32 3 4 C2.34 4 1.68 4 1 4 C1.33 7.96 1.66 11.92 2 16 C1.34 16 0.68 16 0 16 C0 14.35 0 12.7 0 11 C-0.99 11.33 -1.98 11.66 -3 12 C-4 11 -4 11 -4.3125 8.25 C-3.93491949 4.32316275 -2.66026601 2.82653264 0 0 Z " fill="#0F0E0E" transform="translate(21,21)"/>
<path d="M0 0 C0.99 0.33 1.98 0.66 3 1 C3.70381157 2.98723268 4.3711811 4.98777953 5 7 C5.66 7.33 6.32 7.66 7 8 C7 9.32 7 10.64 7 12 C8.175625 12.2165625 8.175625 12.2165625 9.375 12.4375 C12 13 12 13 14 14 C13.67 15.32 13.34 16.64 13 18 C11.68 18 10.36 18 9 18 C7.49480613 15.37785672 5.99568681 12.75255792 4.5 10.125 C3.85611328 9.00544922 3.85611328 9.00544922 3.19921875 7.86328125 C2.79316406 7.14785156 2.38710937 6.43242187 1.96875 5.6953125 C1.59169922 5.03547363 1.21464844 4.37563477 0.82617188 3.69580078 C0 2 0 2 0 0 Z " fill="#D3A94C" transform="translate(249,124)"/>
<path d="M0 0 C0.99 0 1.98 0 3 0 C2.67 5.94 2.34 11.88 2 18 C1.67 16.68 1.34 15.36 1 14 C0.34 14 -0.32 14 -1 14 C-2.51708428 4.58997722 -2.51708428 4.58997722 0 0 Z " fill="#9D620D" transform="translate(213,40)"/>
<path d="M0 0 C0.99 0.33 1.98 0.66 3 1 C3 1.66 3 2.32 3 3 C3.66 3 4.32 3 5 3 C5.33 4.32 5.66 5.64 6 7 C6.66 7 7.32 7 8 7 C8.33 7.99 8.66 8.98 9 10 C8.34 10 7.68 10 7 10 C7 10.66 7 11.32 7 12 C2.4137931 10.55172414 2.4137931 10.55172414 0.6875 8.25 C-0.17450101 5.42890579 -0.13329111 2.93240449 0 0 Z " fill="#AC7012" transform="translate(49,181)"/>
<path d="M0 0 C0.66 0 1.32 0 2 0 C2.433125 0.94875 2.86625 1.8975 3.3125 2.875 C4.79302201 6.20041937 4.79302201 6.20041937 8 8 C8.12375 8.86625 8.2475 9.7325 8.375 10.625 C9.21125522 15.14077818 11.42749797 18.2599048 14 22 C13.34 22.66 12.68 23.32 12 24 C9.99321599 20.37871557 7.9957352 16.75238357 6 13.125 C5.42765625 12.09246094 4.8553125 11.05992187 4.265625 9.99609375 C3.72421875 9.00996094 3.1828125 8.02382812 2.625 7.0078125 C2.12226563 6.09660645 1.61953125 5.18540039 1.1015625 4.24658203 C0 2 0 2 0 0 Z " fill="#E2BF70" transform="translate(288,193)"/>
<path d="M0 0 C3.53586014 3.17320782 5.58578031 5.16743695 6 10 C7.32 10 8.64 10 10 10 C10 11.32 10 12.64 10 14 C9.34 14 8.68 14 8 14 C7.67 14.66 7.34 15.32 7 16 C6.34 14.35 5.68 12.7 5 11 C4.34 11 3.68 11 3 11 C2.30034557 9.73581754 1.61565237 8.46334598 0.9375 7.1875 C0.55464844 6.47980469 0.17179688 5.77210937 -0.22265625 5.04296875 C-1 3 -1 3 0 0 Z " fill="#BD7C12" transform="translate(231,55)"/>
<path d="M0 0 C0.33 0 0.66 0 1 0 C1 12.87 1 25.74 1 39 C0.67 39 0.34 39 0 39 C-0.65907655 29.93769743 -1.10662498 20.98109292 -0.9375 11.890625 C-0.89059501 9.08605953 -0.89059501 9.08605953 -1.55859375 6.78125 C-2.21820559 4.11945357 -1.13704194 2.40785352 0 0 Z " fill="#EFC46E" transform="translate(210,190)"/>
<path d="M0 0 C1.79296875 0.1640625 1.79296875 0.1640625 4 1 C5.73828125 3.3984375 5.73828125 3.3984375 7.3125 6.375 C7.84488281 7.35210937 8.37726563 8.32921875 8.92578125 9.3359375 C10 12 10 12 9 15 C8.34 15 7.68 15 7 15 C5.82823482 12.87767021 4.66245215 10.75242209 3.5 8.625 C3.16613281 8.02171875 2.83226562 7.4184375 2.48828125 6.796875 C0 2.2265625 0 2.2265625 0 0 Z " fill="#B67812" transform="translate(271,128)"/>
<path d="M0 0 C2.96865509 2.54456151 4.3619751 5.48994665 6 9 C4.02 9.33 2.04 9.66 0 10 C0 9.34 0 8.68 0 8 C-0.66 8 -1.32 8 -2 8 C-2.33 8.66 -2.66 9.32 -3 10 C-3.33 9.34 -3.66 8.68 -4 8 C-3.2265625 7.1028125 -3.2265625 7.1028125 -2.4375 6.1875 C-1.963125 5.465625 -1.48875 4.74375 -1 4 C-1.33 3.01 -1.66 2.02 -2 1 C-1.34 0.67 -0.68 0.34 0 0 Z " fill="#CD8E2D" transform="translate(255,62)"/>
<path d="M0 0 C1.77038181 3.05090706 2.23335998 5.19074721 2.16015625 8.703125 C2.14919922 9.60160156 2.13824219 10.50007812 2.12695312 11.42578125 C2.10568359 12.35777344 2.08441406 13.28976563 2.0625 14.25 C1.89617934 21.89150527 1.89617934 21.89150527 2.62109375 29.484375 C3 33 3 33 1 36 C0.14083904 31.55852431 -0.11697565 27.37230176 -0.09765625 22.8515625 C-0.09553383 21.86547501 -0.09553383 21.86547501 -0.09336853 20.85946655 C-0.08781762 18.78126269 -0.07527465 16.70317073 -0.0625 14.625 C-0.05747864 13.20703282 -0.05291685 11.78906393 -0.04882812 10.37109375 C-0.03786437 6.91402678 -0.02063421 3.45702433 0 0 Z " fill="#110601" transform="translate(67,132)"/>
<path d="M0 0 C2.59579847 0.9921957 3.76451254 1.53693324 5.046875 4.05859375 C5.27890625 4.84363281 5.5109375 5.62867188 5.75 6.4375 C6.11351562 7.61119141 6.11351562 7.61119141 6.484375 8.80859375 C7 11 7 11 7 14 C3.38430856 12.79476952 3.05330455 11.92814436 1.25 8.6875 C0.80140625 7.90761719 0.3528125 7.12773438 -0.109375 6.32421875 C-1.11611108 3.69699083 -0.97226335 2.59072612 0 0 Z M3 5 C4 7 4 7 4 7 Z " fill="#9F6208" transform="translate(223,40)"/>
<path d="M0 0 C0.33 2.31 0.66 4.62 1 7 C-5.93 7 -12.86 7 -20 7 C-19.67 6.34 -19.34 5.68 -19 5 C-14.05 5 -9.1 5 -4 5 C-4 3.68 -4 2.36 -4 1 C-1 0 -1 0 0 0 Z " fill="#8A5D1B" transform="translate(231,223)"/>
<path d="M0 0 C1.32 0 2.64 0 4 0 C4 3.63 4 7.26 4 11 C2.02 11.99 2.02 11.99 0 13 C0 8.71 0 4.42 0 0 Z " fill="#C68521" transform="translate(134,92)"/>
<path d="M0 0 C1.4540625 0.0309375 1.4540625 0.0309375 2.9375 0.0625 C0.25857971 2.74142029 -2.68406588 3.21887375 -6.25 4.125 C-6.89775391 4.29837891 -7.54550781 4.47175781 -8.21289062 4.65039062 C-14.10851936 6.1876125 -19.89828733 7.2188725 -26 7.125 C-26.77214844 7.11597656 -27.54429688 7.10695312 -28.33984375 7.09765625 C-28.90832031 7.08605469 -29.47679688 7.07445312 -30.0625 7.0625 C-30.0625 6.7325 -30.0625 6.4025 -30.0625 6.0625 C-29.19109375 5.95292969 -28.3196875 5.84335938 -27.421875 5.73046875 C-18.55167793 4.54969576 -8.35773845 0.17056609 0 0 Z " fill="#714D11" transform="translate(129.0625,218.9375)"/>
<path d="M0 0 C3.35595828 0.59927826 5.37801226 1.84622436 8 4 C7.67 4.99 7.34 5.98 7 7 C3.39703406 7.41176754 2.21597933 7.1535853 -0.8125 5 C-1.534375 4.34 -2.25625 3.68 -3 3 C-2.67 2.34 -2.34 1.68 -2 1 C-1.34 1.33 -0.68 1.66 0 2 C0 1.34 0 0.68 0 0 Z " fill="#D18D21" transform="translate(56,191)"/>
<path d="M0 0 C0.33 0.66 0.66 1.32 1 2 C3.52733235 2.65555119 3.52733235 2.65555119 6 3 C5.67 3.66 5.34 4.32 5 5 C-1.27 5 -7.54 5 -14 5 C-13.67 4.34 -13.34 3.68 -13 3 C-10.56640625 2.40234375 -10.56640625 2.40234375 -7.5625 1.9375 C-3.65106811 1.37614082 -3.65106811 1.37614082 0 0 Z " fill="#AD7012" transform="translate(64,172)"/>
<path d="M0 0 C3.04549687 3.76498318 5.32662684 7.915341 7.6875 12.125 C8.10322266 12.85332031 8.51894531 13.58164063 8.94726562 14.33203125 C9.33978516 15.02941406 9.73230469 15.72679687 10.13671875 16.4453125 C10.49467529 17.07969238 10.85263184 17.71407227 11.22143555 18.36767578 C12 20 12 20 12 22 C11.34 22 10.68 22 10 22 C7 16.25 7 16.25 7 14 C6.34 14 5.68 14 5 14 C4.34 11.69 3.68 9.38 3 7 C2.01 7 1.02 7 0 7 C-0.93423645 3.98968256 -1.04449911 3.13349732 0 0 Z " fill="#AB782B" transform="translate(287,117)"/>
<path d="M0 0 C0.33 0 0.66 0 1 0 C1.33 3.63 1.66 7.26 2 11 C1.01 11.33 0.02 11.66 -1 12 C-0.87625 12.99 -0.87625 12.99 -0.75 14 C-1.09191348 18.10296171 -2.50303419 21.70153899 -5 25 C-7.140625 25.734375 -7.140625 25.734375 -9 26 C-8.60167969 25.29617187 -8.20335938 24.59234375 -7.79296875 23.8671875 C-3.55266532 15.96433487 -1.48688526 8.81696873 0 0 Z " fill="#805518" transform="translate(131,164)"/>
<path d="M0 0 C8.58 0 17.16 0 26 0 C23.33440687 1.77706209 20.9719385 2.87548273 18 4 C17.67 3.34 17.34 2.68 17 2 C14.54137599 1.94616152 12.0839245 1.90640962 9.625 1.875 C8.92632812 1.85824219 8.22765625 1.84148438 7.5078125 1.82421875 C5.67102514 1.80655733 3.83398037 1.89696739 2 2 C1.34 2.66 0.68 3.32 0 4 C0 2.68 0 1.36 0 0 Z " fill="#885913" transform="translate(211,28)"/>
<path d="M0 0 C0 3 0 3 -1.0625 4.5 C-7.91268143 9.80336627 -14.95820221 9.62609304 -23.26171875 8.765625 C-24.84662625 8.54701707 -26.42478577 8.28003809 -28 8 C-28 7.34 -28 6.68 -28 6 C-26.2984375 6.2475 -26.2984375 6.2475 -24.5625 6.5 C-23.04244751 6.67364396 -21.52154609 6.83997095 -20 7 C-19.27941406 7.09152344 -18.55882813 7.18304688 -17.81640625 7.27734375 C-10.94628033 7.77943851 -6.4770074 4.92301522 -1 1 C-0.67 0.67 -0.34 0.34 0 0 Z " fill="#835A1C" transform="translate(121,191)"/>
<path d="M0 0 C0.99 0 1.98 0 3 0 C3.33 0.66 3.66 1.32 4 2 C4.66 1.34 5.32 0.68 6 0 C6.66 0.66 7.32 1.32 8 2 C7.69972883 3.67293936 7.36442233 5.33985384 7 7 C7.33 7.99 7.66 8.98 8 10 C8.66 10.33 9.32 10.66 10 11 C9.01 11.99 8.02 12.98 7 14 C5.14223235 10.86501708 4.79859524 8.62528568 5 5 C4.01 5 3.02 5 2 5 C1.34 3.35 0.68 1.7 0 0 Z " fill="#EABB4F" transform="translate(275,168)"/>
<path d="M0 0 C0.33 1.32 0.66 2.64 1 4 C1.66 4 2.32 4 3 4 C3.33 7.3 3.66 10.6 4 14 C3.01 14.33 2.02 14.66 1 15 C-1.80396138 10.05183286 -0.77350507 5.38317715 0 0 Z " fill="#BB7B13" transform="translate(211,50)"/>
<path d="M0 0 C1.98 0.66 3.96 1.32 6 2 C6 2.66 6 3.32 6 4 C5.21753906 4.06058594 4.43507812 4.12117187 3.62890625 4.18359375 C2.11103516 4.30927734 2.11103516 4.30927734 0.5625 4.4375 C-0.44683594 4.51871094 -1.45617187 4.59992188 -2.49609375 4.68359375 C-4.93640779 4.73211468 -4.93640779 4.73211468 -6 6 C-7.99958364 6.04080783 -10.00045254 6.04254356 -12 6 C-12.33 6.66 -12.66 7.32 -13 8 C-13 6.68 -13 5.36 -13 4 C-11.948125 3.87625 -10.89625 3.7525 -9.8125 3.625 C-4.47054659 2.8191288 -4.47054659 2.8191288 0 0 Z " fill="#CD861B" transform="translate(166,162)"/>
<path d="M0 0 C0.33 0 0.66 0 1 0 C1 5.28 1 10.56 1 16 C-0.32 15.34 -1.64 14.68 -3 14 C-3.02712066 12.56260487 -3.04645067 11.12506137 -3.0625 9.6875 C-3.07410156 8.88699219 -3.08570313 8.08648437 -3.09765625 7.26171875 C-3 5 -3 5 -2 2 C-1.34 2 -0.68 2 0 2 C0 1.34 0 0.68 0 0 Z " fill="#9B6108" transform="translate(137,144)"/>
<path d="M0 0 C0.33 0 0.66 0 1 0 C1 10.56 1 21.12 1 32 C1.66 32.33 2.32 32.66 3 33 C2.34 33 1.68 33 1 33 C0.67 33.99 0.34 34.98 0 36 C-1.24810335 32.21786865 -1.03501717 28.53200706 -0.87890625 24.609375 C-0.85529526 23.90476135 -0.83168427 23.20014771 -0.80735779 22.47418213 C-0.73103023 20.2325672 -0.64687421 17.99132504 -0.5625 15.75 C-0.5092483 14.2265805 -0.45650812 12.70314302 -0.40429688 11.1796875 C-0.27545752 7.45289845 -0.13959768 3.72640333 0 0 Z " fill="#EEC56D" transform="translate(309,120)"/>
<path d="M0 0 C3.60917851 3.28107137 4.90433893 5.6368298 5.25 10.5625 C5 14 5 14 3 17 C1.8125 15.3125 1.8125 15.3125 1 13 C2.375 10.25 2.375 10.25 4 8 C2.68 7.34 1.36 6.68 0 6 C0 4.02 0 2.04 0 0 Z " fill="#965C08" transform="translate(227,88)"/>
<path d="M0 0 C0.66 0 1.32 0 2 0 C0.2768936 7.24006989 -2.25627469 13.19917713 -7 19 C-7.66 19.33 -8.32 19.66 -9 20 C-8.67 18.35 -8.34 16.7 -8 15 C-7.34 15 -6.68 15 -6 15 C-4.58622659 12.36095629 -3.62759865 9.92879371 -3 7 C-2.34 7 -1.68 7 -1 7 C-0.67 4.69 -0.34 2.38 0 0 Z " fill="#1D0B01" transform="translate(128,173)"/>
<path d="M0 0 C3.63 0.33 7.26 0.66 11 1 C7.8388984 4.1611016 7.4438418 4.38812741 3.3125 4.6875 C2.50425781 4.75324219 1.69601563 4.81898438 0.86328125 4.88671875 C-0.05904297 4.94279297 -0.05904297 4.94279297 -1 5 C-0.67 3.35 -0.34 1.7 0 0 Z " fill="#D98F1F" transform="translate(155,161)"/>
<path d="M0 0 C0.33 0.99 0.66 1.98 1 3 C3.01508358 3.73323796 3.01508358 3.73323796 5 4 C4.51917969 4.46921875 4.03835938 4.9384375 3.54296875 5.421875 C1.26086991 9.23500217 1.43198137 12.88039556 1.3125 17.25 C1.27833984 18.09046875 1.24417969 18.9309375 1.20898438 19.796875 C1.12676432 21.86412204 1.06169843 23.93203874 1 26 C0.67 26 0.34 26 0 26 C0 17.42 0 8.84 0 0 Z " fill="#DFAF45" transform="translate(309,76)"/>
<path d="M0 0 C0.33 0 0.66 0 1 0 C1.06058594 0.92683594 1.12117188 1.85367188 1.18359375 2.80859375 C1.26738281 4.00613281 1.35117187 5.20367187 1.4375 6.4375 C1.51871094 7.63246094 1.59992188 8.82742187 1.68359375 10.05859375 C1.67656114 12.88570244 1.67656114 12.88570244 3 14 C3.23529412 19.52941176 3.23529412 19.52941176 2 22 C1.34 22 0.68 22 0 22 C0 14.74 0 7.48 0 0 Z " fill="#160C03" transform="translate(350,34)"/>
<path d="M0 0 C-0.33 1.32 -0.66 2.64 -1 4 C-6.41538462 4.36923077 -6.41538462 4.36923077 -9.375 2.5 C-9.91125 2.005 -10.4475 1.51 -11 1 C-6.8204355 -1.78637633 -4.85331323 -0.79562512 0 0 Z " fill="#C07F18" transform="translate(84,202)"/>
<path d="M0 0 C2.62400522 2.37409996 4.44568209 4.81364829 6 8 C5.6875 10.3125 5.6875 10.3125 5 12 C4.34 11.67 3.68 11.34 3 11 C3 10.34 3 9.68 3 9 C2.34 9 1.68 9 1 9 C1 8.01 1 7.02 1 6 C0.34 6 -0.32 6 -1 6 C-1.042721 4.33388095 -1.04063832 2.66617115 -1 1 C-0.67 0.67 -0.34 0.34 0 0 Z " fill="#E6B147" transform="translate(266,122)"/>
<path d="M0 0 C3.46748502 3.00515368 4.93111086 5.53009997 6 10 C5.67 10.66 5.34 11.32 5 12 C4.01 12 3.02 12 2 12 C1.67 12.66 1.34 13.32 1 14 C1.33 11.36 1.66 8.72 2 6 C1.34 5.67 0.68 5.34 0 5 C0 3.35 0 1.7 0 0 Z " fill="#180903" transform="translate(233,99)"/>
<path d="M0 0 C2.97 0.33 5.94 0.66 9 1 C8.34 2.32 7.68 3.64 7 5 C4.69 5 2.38 5 0 5 C0 3.35 0 1.7 0 0 Z " fill="#0D0D0D" transform="translate(0,222)"/>
<path d="M0 0 C2.97 0.495 2.97 0.495 6 1 C4.65543858 3.68912283 3.42588619 3.7891782 0.625 4.75 C-0.56222656 5.17539063 -0.56222656 5.17539063 -1.7734375 5.609375 C-4 6 -4 6 -7 4 C-6.34 3.34 -5.68 2.68 -5 2 C-3.68 2 -2.36 2 -1 2 C-0.67 1.34 -0.34 0.68 0 0 Z " fill="#D59814" transform="translate(115,218)"/>
<path d="M0 0 C-1.77502198 2.27991712 -2.6300787 2.95047123 -5.54370117 3.34057617 C-6.53345947 3.32486572 -7.52321777 3.30915527 -8.54296875 3.29296875 C-10.15268555 3.2784668 -10.15268555 3.2784668 -11.79492188 3.26367188 C-12.91447266 3.23853516 -14.03402344 3.21339844 -15.1875 3.1875 C-16.31865234 3.17396484 -17.44980469 3.16042969 -18.61523438 3.14648438 C-21.41063317 3.11109958 -24.20507892 3.06172948 -27 3 C-27 2.67 -27 2.34 -27 2 C-25.74703125 1.93941406 -24.4940625 1.87882813 -23.203125 1.81640625 C-21.55207276 1.73197744 -19.90103165 1.64733061 -18.25 1.5625 C-17.425 1.52318359 -16.6 1.48386719 -15.75 1.44335938 C-14.95078125 1.40146484 -14.1515625 1.35957031 -13.328125 1.31640625 C-12.5949707 1.27974854 -11.86181641 1.24309082 -11.10644531 1.20532227 C-7.26269527 0.8306591 -3.92899604 -0.10913878 0 0 Z " fill="#DBA025" transform="translate(110,204)"/>
<path d="M0 0 C2.4294516 3.6441774 2.16179575 5.71241272 2 10 C0.68 10 -0.64 10 -2 10 C-2 7.03 -2 4.06 -2 1 C-1.34 0.67 -0.68 0.34 0 0 Z " fill="#B4781D" transform="translate(136,82)"/>
<path d="M0 0 C0 3 0 3 -1.46875 4.7890625 C-6.33934911 9.19133477 -9.40093795 10.88215961 -16 11 C-13.48441575 8.90367979 -10.94257577 7.45143968 -8 6.0625 C-4.72463126 4.47981249 -2.39595658 2.79528268 0 0 Z " fill="#9A6003" transform="translate(133,211)"/>
<path d="M0 0 C0.33 0 0.66 0 1 0 C1.33820166 1.5823006 1.67035939 3.16589375 2 4.75 C2.185625 5.63171875 2.37125 6.5134375 2.5625 7.421875 C3 10 3 10 3 14 C3.66 14 4.32 14 5 14 C5.33 17.3 5.66 20.6 6 24 C3.20501276 21.20501276 2.77749616 17.98031746 1.875 14.25 C1.69324219 13.54617187 1.51148437 12.84234375 1.32421875 12.1171875 C0.30376662 7.98934355 -0.20215533 4.28569306 0 0 Z " fill="#D9B35B" transform="translate(26,168)"/>
<path d="M0 0 C0.33 0 0.66 0 1 0 C1 2.97 1 5.94 1 9 C0.01 9 -0.98 9 -2 9 C-2.33 9.99 -2.66 10.98 -3 12 C-3.99 12 -4.98 12 -6 12 C-4.88194029 8.12979331 -3.9704892 5.71218579 -1 3 C-0.67 2.01 -0.34 1.02 0 0 Z " fill="#DB9329" transform="translate(66,158)"/>
<path d="M0 0 C3 1 3 1 4.75 3.8125 C5.98589446 6.96403086 6.28222189 7.96929372 5 11 C1.63408573 8.27521226 0.55773724 4.93143208 -1 1 C-0.67 0.67 -0.34 0.34 0 0 Z " fill="#AB6F0B" transform="translate(280,142)"/>
<path d="M0 0 C-0.33 0.99 -0.66 1.98 -1 3 C-0.34 3.33 0.32 3.66 1 4 C0.01 4.495 0.01 4.495 -1 5 C-0.67 6.32 -0.34 7.64 0 9 C-0.99 9.495 -0.99 9.495 -2 10 C-3.4606285 7.35261084 -4 6.10551666 -4 3 C-4.66 3 -5.32 3 -6 3 C-6 2.01 -6 1.02 -6 0 C-2.25 -1.125 -2.25 -1.125 0 0 Z " fill="#DEA624" transform="translate(242,98)"/>
<path d="M0 0 C1.65 0.33 3.3 0.66 5 1 C4.25 7.75 4.25 7.75 2 10 C-1.07692308 4.58461538 -1.07692308 4.58461538 -0.6875 1.625 C-0.460625 1.08875 -0.23375 0.5525 0 0 Z " fill="#E7BE5B" transform="translate(285,184)"/>
<path d="M0 0 C1.65 0.99 3.3 1.98 5 3 C4.34 5.31 3.68 7.62 3 10 C2.01 9.67 1.02 9.34 0 9 C-0.87890625 2.84765625 -0.87890625 2.84765625 -1 1 C-0.67 0.67 -0.34 0.34 0 0 Z " fill="#E0AA2D" transform="translate(246,112)"/>
<path d="M0 0 C2.49552403 2.27597646 4.06622986 4.60721178 5.6875 7.5625 C6.12449219 8.34753906 6.56148438 9.13257813 7.01171875 9.94140625 C8 12 8 12 8 14 C7.34 14 6.68 14 6 14 C5.67 13.01 5.34 12.02 5 11 C4.34 10.67 3.68 10.34 3 10 C0.8537299 6.28530176 0 4.35855288 0 0 Z " fill="#ECBD61" transform="translate(296,175)"/>
<path d="M0 0 C1.65 0 3.3 0 5 0 C3.68 1.65 2.36 3.3 1 5 C0.34 4.67 -0.32 4.34 -1 4 C-0.67 2.68 -0.34 1.36 0 0 Z M-4 3 C-3.01 3.33 -2.02 3.66 -1 4 C-0.67 5.98 -0.34 7.96 0 10 C-2.50037734 7.82575883 -3.43628586 6.26954202 -4 3 Z " fill="#A0650B" transform="translate(50,177)"/>
<path d="M0 0 C0.33 0 0.66 0 1 0 C1 3.63 1 7.26 1 11 C0.01 11.33 -0.98 11.66 -2 12 C-2.05395478 10.37536158 -2.09277195 8.75021459 -2.125 7.125 C-2.14820313 6.22007813 -2.17140625 5.31515625 -2.1953125 4.3828125 C-2 2 -2 2 0 0 Z " fill="#DA9322" transform="translate(213,67)"/>
<path d="M0 0 C0 3.3 0 6.6 0 10 C-1.32 9.34 -2.64 8.68 -4 8 C-4 5.69 -4 3.38 -4 1 C-2 0 -2 0 0 0 Z " fill="#A66D19" transform="translate(138,75)"/>
<path d="M0 0 C1.98 0.66 3.96 1.32 6 2 C5.34 3.98 4.68 5.96 4 8 C3.01 8 2.02 8 1 8 C0.67 5.36 0.34 2.72 0 0 Z " fill="#090A0C" transform="translate(68,153)"/>
<path d="M0 0 C3.97497544 3.40712181 5.86793788 7.32760855 8 12 C7.01 12.495 7.01 12.495 6 13 C5.67 11.68 5.34 10.36 5 9 C4.34 9 3.68 9 3 9 C0.91664224 5.87496336 0 3.72863529 0 0 Z " fill="#BB812E" transform="translate(248,50)"/>
<path d="M0 0 C0.33 0.99 0.66 1.98 1 3 C3.64 3.33 6.28 3.66 9 4 C9 4.33 9 4.66 9 5 C4.71 5 0.42 5 -4 5 C-4 3.68 -4 2.36 -4 1 C-2.68 0.67 -1.36 0.34 0 0 Z " fill="#F5D17E" transform="translate(201,224)"/>
<path d="M0 0 C0.66 0 1.32 0 2 0 C2.2361959 6.40353322 1.823321 11.84629161 0 18 C-0.33 18 -0.66 18 -1 18 C-1.09945415 11.88909517 -1.0712828 6.02596573 0 0 Z " fill="#DFAA2F" transform="translate(139,142)"/>
<path d="M0 0 C3 1 3 1 4.3125 3.375 C4.6528125 4.674375 4.6528125 4.674375 5 6 C4.01 7.485 4.01 7.485 3 9 C0.9375 6.1875 0.9375 6.1875 -1 3 C-0.67 2.01 -0.34 1.02 0 0 Z " fill="#CE8A1C" transform="translate(239,69)"/>
<path d="M0 0 C0.66 0.66 1.32 1.32 2 2 C-0.04687238 5.07030857 -2.09197539 6.78071806 -5 9 C-5.66 8.01 -6.32 7.02 -7 6 C-4.94766315 3.7522025 -3.99332739 2.9977758 -1 2 C-0.67 1.34 -0.34 0.68 0 0 Z " fill="#DB9D16" transform="translate(130,189)"/>
<path d="M0 0 C2.49552403 2.27597646 4.06622986 4.60721178 5.6875 7.5625 C6.12449219 8.34753906 6.56148438 9.13257813 7.01171875 9.94140625 C8 12 8 12 8 14 C7.34 14 6.68 14 6 14 C6 13.01 6 12.02 6 11 C5.34 11 4.68 11 4 11 C3.32880451 9.5437455 2.66318193 8.08492133 2 6.625 C1.62875 5.81289062 1.2575 5.00078125 0.875 4.1640625 C0 2 0 2 0 0 Z " fill="#281606" transform="translate(257,141)"/>
<path d="M0 0 C0.33 0 0.66 0 1 0 C1.63019694 9.01531729 1.63019694 9.01531729 -1 13.125 C-1.66 13.74375 -2.32 14.3625 -3 15 C-3.125 11.625 -3.125 11.625 -3 8 C-2.34 7.34 -1.68 6.68 -1 6 C-0.60235737 4.01178687 -0.26224651 2.01055661 0 0 Z " fill="#C47E1C" transform="translate(137,126)"/>
<path d="M0 0 C0.66 0 1.32 0 2 0 C2.17835515 4.54805635 1.99785435 7.8794254 0 12 C-0.33 12 -0.66 12 -1 12 C-1.02687279 10.18757948 -1.04633715 8.37504767 -1.0625 6.5625 C-1.07410156 5.55316406 -1.08570313 4.54382813 -1.09765625 3.50390625 C-1 1 -1 1 0 0 Z " fill="#9D630B" transform="translate(212,124)"/>
<path d="M0 0 C0.33 0.66 0.66 1.32 1 2 C1.66 2 2.32 2 3 2 C3.1875 5.3125 3.1875 5.3125 3 9 C2.01 9.99 1.02 10.98 0 12 C0 8.04 0 4.08 0 0 Z " fill="#0D0D0D" transform="translate(0,53)"/>
<path d="M0 0 C2.31 0.33 4.62 0.66 7 1 C7.33 1.99 7.66 2.98 8 4 C5.03 4 2.06 4 -1 4 C-0.67 2.68 -0.34 1.36 0 0 Z " fill="#0E0E0E" transform="translate(294,254)"/>
<path d="M0 0 C0.99 0.144375 1.98 0.28875 3 0.4375 C6.99409465 1.00925179 10.99532937 1.50819834 15 2 C15 2.33 15 2.66 15 3 C10.05 3 5.1 3 0 3 C0 2.01 0 1.02 0 0 Z " fill="#F4D28C" transform="translate(308,227)"/>
<path d="M0 0 C1.9375 0.3125 1.9375 0.3125 4 1 C4.33 1.99 4.66 2.98 5 4 C4.34 4 3.68 4 3 4 C3 4.66 3 5.32 3 6 C0.525 5.01 0.525 5.01 -2 4 C-1.34 2.68 -0.68 1.36 0 0 Z " fill="#BC7C16" transform="translate(53,187)"/>
<path d="M0 0 C1.8871875 0.0309375 1.8871875 0.0309375 3.8125 0.0625 C2.8225 1.5475 2.8225 1.5475 1.8125 3.0625 C-0.1328125 3.35546875 -0.1328125 3.35546875 -2.3125 3.25 C-3.59125 3.188125 -4.87 3.12625 -6.1875 3.0625 C-6.5175 2.4025 -6.8475 1.7425 -7.1875 1.0625 C-4.43671116 0.14557039 -2.82801087 -0.04636083 0 0 Z " fill="#A1630E" transform="translate(163.1875,171.9375)"/>
<path d="M0 0 C0.33 0 0.66 0 1 0 C1.33 3.96 1.66 7.92 2 12 C0.68 12 -0.64 12 -2 12 C-1.34 8.04 -0.68 4.08 0 0 Z " fill="#B78028" transform="translate(67,162)"/>
<path d="M0 0 C2.16874252 0.50603992 3.99967627 0.99983813 6 2 C5.6875 3.9375 5.6875 3.9375 5 6 C4.01 6.33 3.02 6.66 2 7 C1.34 4.69 0.68 2.38 0 0 Z " fill="#E2B03D" transform="translate(257,136)"/>
<path d="M0 0 C2.31 0.66 4.62 1.32 7 2 C6.01 2.495 6.01 2.495 5 3 C5.33 4.65 5.66 6.3 6 8 C5.01 8.495 5.01 8.495 4 9 C4 7.68 4 6.36 4 5 C3.01 4.67 2.02 4.34 1 4 C0.3125 1.9375 0.3125 1.9375 0 0 Z " fill="#E3AC36" transform="translate(252,127)"/>
<path d="M0 0 C3.48331435 3.01887244 4.79157144 5.56909529 6 10 C4.35 8.68 2.7 7.36 1 6 C0.01 6.495 0.01 6.495 -1 7 C-0.67 4.69 -0.34 2.38 0 0 Z " fill="#D89737" transform="translate(264,78)"/>
<path d="M0 0 C1.32 0.99 2.64 1.98 4 3 C2.71475739 3.86380259 1.42157581 4.71580369 0.125 5.5625 C-0.59429687 6.03816406 -1.31359375 6.51382813 -2.0546875 7.00390625 C-2.69664062 7.33261719 -3.33859375 7.66132813 -4 8 C-4.66 7.67 -5.32 7.34 -6 7 C-6 6.34 -6 5.68 -6 5 C-4.02 4.67 -2.04 4.34 0 4 C0 2.68 0 1.36 0 0 Z " fill="#885C1B" transform="translate(147,207)"/>
<path d="M0 0 C0.66 0 1.32 0 2 0 C2.33 3.96 2.66 7.92 3 12 C2.67 11.01 2.34 10.02 2 9 C1.01 8.67 0.02 8.34 -1 8 C-0.67 5.36 -0.34 2.72 0 0 Z " fill="#B17826" transform="translate(64,146)"/>
<path d="M0 0 C2.475 0.99 2.475 0.99 5 2 C4.67 3.32 4.34 4.64 4 6 C1.83125748 5.49396008 0.00032373 5.00016187 -2 4 C-2 3.34 -2 2.68 -2 2 C-1.34 2 -0.68 2 0 2 C0 1.34 0 0.68 0 0 Z " fill="#D79120" transform="translate(71,199)"/>
<path d="M0 0 C1.98 0.495 1.98 0.495 4 1 C4 3.31 4 5.62 4 8 C2.35 6.35 0.7 4.7 -1 3 C-0.67 2.01 -0.34 1.02 0 0 Z " fill="#100D0A" transform="translate(191,184)"/>
<path d="M0 0 C3.04049801 3.64859761 4.96518762 7.7444533 7 12 C6.01 12 5.02 12 4 12 C3.71125 11.21625 3.4225 10.4325 3.125 9.625 C2.15087746 6.90328368 2.15087746 6.90328368 0 5 C-0.125 2.375 -0.125 2.375 0 0 Z " fill="#291402" transform="translate(241,112)"/>
<path d="M0 0 C2.09749995 2.35968744 2.96905704 3.54616994 3.1875 6.75 C3.125625 7.4925 3.06375 8.235 3 9 C0 8 0 8 -1.3125 5.625 C-1.539375 4.75875 -1.76625 3.8925 -2 3 C-1.34 2.01 -0.68 1.02 0 0 Z " fill="#AA6B0B" transform="translate(227,45)"/>
<path d="M0 0 C-0.33 0.99 -0.66 1.98 -1 3 C-3.97 3 -6.94 3 -10 3 C-6.68152292 -0.06320961 -4.44849969 -0.3033068 0 0 Z " fill="#0B0905" transform="translate(39,23)"/>
<path d="M0 0 C2.91227269 3.28804981 4.49701212 5.59885603 5 10 C4.67 9.34 4.34 8.68 4 8 C3.34 8 2.68 8 2 8 C0.3125 5.6875 0.3125 5.6875 -1 3 C-0.67 2.01 -0.34 1.02 0 0 Z " fill="#C68F34" transform="translate(282,109)"/>
<path d="M0 0 C3 1 3 1 4.75 3.8125 C6.05483179 7.13982105 6.02866653 7.79584277 5 11 C4.16151196 9.54462432 3.32936066 8.08559627 2.5 6.625 C1.80390625 5.40683594 1.80390625 5.40683594 1.09375 4.1640625 C0 2 0 2 0 0 Z " fill="#270E00" transform="translate(260,68)"/>
<path d="M0 0 C0.66 0 1.32 0 2 0 C2.33 0.66 2.66 1.32 3 2 C3.99 2 4.98 2 6 2 C6 2.99 6 3.98 6 5 C4.68 5 3.36 5 2 5 C2 4.34 2 3.68 2 3 C1.34 3 0.68 3 0 3 C-0.33 3.66 -0.66 4.32 -1 5 C-1.33 4.34 -1.66 3.68 -2 3 C-1.34 2.01 -0.68 1.02 0 0 Z " fill="#D98D21" transform="translate(253,67)"/>
<path d="M0 0 C3.96 1.98 3.96 1.98 8 4 C8 4.99 8 5.98 8 7 C6.35 6.67 4.7 6.34 3 6 C3 5.34 3 4.68 3 4 C2.01 3.34 1.02 2.68 0 2 C0 1.34 0 0.68 0 0 Z " fill="#835518" transform="translate(82,191)"/>
<path d="M0 0 C1.79068573 2.6860286 2.66055791 4.6626589 3.625 7.6875 C3.88539062 8.49574219 4.14578125 9.30398437 4.4140625 10.13671875 C4.60742188 10.75160156 4.80078125 11.36648437 5 12 C4.01 11.34 3.02 10.68 2 10 C2 9.01 2 8.02 2 7 C1.01 7.33 0.02 7.66 -1 8 C-1 5 -1 5 0 4 C0 2.68 0 1.36 0 0 Z " fill="#845817" transform="translate(69,171)"/>
<path d="M0 0 C0.99 0.495 0.99 0.495 2 1 C3.425 8.3625 3.425 8.3625 1 12 C0.67 8.04 0.34 4.08 0 0 Z " fill="#291503" transform="translate(67,156)"/>
<path d="M0 0 C0 1.98 0 3.96 0 6 C-1.32 5.67 -2.64 5.34 -4 5 C-4 3.68 -4 2.36 -4 1 C-1 0 -1 0 0 0 Z " fill="#8F580B" transform="translate(231,223)"/>
<path d="M0 0 C0.33 0 0.66 0 1 0 C1 3.96 1 7.92 1 12 C0.01 11.01 -0.98 10.02 -2 9 C-1.85546875 6.73828125 -1.85546875 6.73828125 -1.1875 4.3125 C-0.97480469 3.50425781 -0.76210938 2.69601563 -0.54296875 1.86328125 C-0.36378906 1.24839844 -0.18460937 0.63351563 0 0 Z " fill="#AB6E12" transform="translate(306,174)"/>
<path d="M0 0 C0.99 0 1.98 0 3 0 C3 0.99 3 1.98 3 3 C0.24921116 3.91692961 -1.35948913 4.10886083 -4.1875 4.0625 C-6.0746875 4.0315625 -6.0746875 4.0315625 -8 4 C-7.67 3.34 -7.34 2.68 -7 2 C-5.02 2 -3.04 2 -1 2 C-0.67 1.34 -0.34 0.68 0 0 Z " fill="#CE8821" transform="translate(64,167)"/>
<path d="M0 0 C2.50298434 2.93828597 3.46930939 5.17902761 4 9 C3.67 8.34 3.34 7.68 3 7 C2.01 7 1.02 7 0 7 C-0.93423645 3.98968256 -1.04449911 3.13349732 0 0 Z " fill="#B67F31" transform="translate(287,117)"/>
<path d="M0 0 C3 1 3 1 4.1875 2.875 C5 5 5 5 5 8 C2 7 2 7 0.8125 5.125 C0 3 0 3 0 0 Z " fill="#B06E11" transform="translate(235,31)"/>
<path d="M0 0 C1 2 1 2 0.44140625 3.9453125 C0.15136719 4.66460937 -0.13867188 5.38390625 -0.4375 6.125 C-0.72496094 6.84945312 -1.01242188 7.57390625 -1.30859375 8.3203125 C-1.53675781 8.87460938 -1.76492187 9.42890625 -2 10 C-2.66 9.34 -3.32 8.68 -4 8 C-1.125 1.125 -1.125 1.125 0 0 Z " fill="#935E19" transform="translate(172,170)"/>
<path d="M0 0 C0.66 0 1.32 0 2 0 C2.33 1.32 2.66 2.64 3 4 C1.68 4.99 0.36 5.98 -1 7 C-1 3 -1 3 0 0 Z " fill="#CF8817" transform="translate(251,59)"/>
<path d="M0 0 C-2.31 1.32 -4.62 2.64 -7 4 C-7.33 3.01 -7.66 2.02 -8 1 C-3.375 -1.125 -3.375 -1.125 0 0 Z " fill="#D19516" transform="translate(130,215)"/>
<path d="M0 0 C0.66 0.33 1.32 0.66 2 1 C0.19587357 4.26460973 -0.83394693 5.88929795 -4 8 C-3.67 5.69 -3.34 3.38 -3 1 C-2.01 0.67 -1.02 0.34 0 0 Z " fill="#F3C96F" transform="translate(308,192)"/>
<path d="M0 0 C1.67542976 0.28604898 3.34385343 0.61781233 5 1 C5 2.32 5 3.64 5 5 C3.35 4.67 1.7 4.34 0 4 C-0.33 3.01 -0.66 2.02 -1 1 C-0.67 0.67 -0.34 0.34 0 0 Z " fill="#E4B33D" transform="translate(262,143)"/>
<path d="M0 0 C2 1.3125 2 1.3125 4 3 C4 3.99 4 4.98 4 6 C2.68 6.33 1.36 6.66 0 7 C0 4.69 0 2.38 0 0 Z " fill="#CE911F" transform="translate(218,37)"/>
<path d="M0 0 C0.33 0 0.66 0 1 0 C1.17942163 3.94727588 1.09350689 6.5980513 -1 10 C-1.66 10 -2.32 10 -3 10 C-2.01 6.7 -1.02 3.4 0 0 Z " fill="#9A5F02" transform="translate(150,184)"/>
<path d="M0 0 C2.875 -0.125 2.875 -0.125 6 0 C6.66 0.66 7.32 1.32 8 2 C5.69 2.33 3.38 2.66 1 3 C0.67 2.01 0.34 1.02 0 0 Z " fill="#C58119" transform="translate(50,170)"/>
<path d="M0 0 C0.33 0 0.66 0 1 0 C1 2.31 1 4.62 1 7 C0.01 7.33 -0.98 7.66 -2 8 C-2.66 7.34 -3.32 6.68 -4 6 C-3.525625 5.566875 -3.05125 5.13375 -2.5625 4.6875 C-0.76313043 2.97690387 -0.76313043 2.97690387 0 0 Z " fill="#E09C34" transform="translate(66,158)"/>
</svg>
